<?xml version="1.0" encoding="utf-8"?>
<!-- Generator: Adobe Illustrator 27.0.0, SVG Export Plug-In . SVG Version: 6.00 Build 0)  -->
<svg version="1.1" id="Layer_1" xmlns="http://www.w3.org/2000/svg" xmlns:xlink="http://www.w3.org/1999/xlink" x="0px" y="0px"
	 viewBox="0 0 1000 1000" style="enable-background:new 0 0 1000 1000;" xml:space="preserve">
<style type="text/css">
	.st0{fill-rule:evenodd;clip-rule:evenodd;}
	.st1{fill-rule:evenodd;clip-rule:evenodd;fill:#ED1C24;}
	.st2{fill-rule:evenodd;clip-rule:evenodd;fill:none;stroke:#000000;stroke-width:0;stroke-linecap:square;stroke-miterlimit:10;}
	.st3{fill-rule:evenodd;clip-rule:evenodd;fill:#FFFFFF;}
	.st4{fill-rule:evenodd;clip-rule:evenodd;fill:#273070;}
	.st5{fill:url(#SVGID_1_);}
	.st6{fill:#FFFFFF;}
	.st7{fill:#485A93;}
	.st8{fill:#ED2224;}
	.st9{fill:#42B649;}
</style>
<g>
	<path class="st0" d="M239.6,333.6c-18.3,1.2-36.5,5.5-53.4,12.6c-20.6,8.6-39.4,21.5-54.9,37.5c-13.6,13.9-24.7,30.2-32.7,47.9
		c-7.6,16.7-12.3,34.7-14,52.9c-1.4,14.9-0.8,30,1.8,44.7c4.2,23.7,13.6,46.4,27.4,66.1c11.1,16,25.1,30,41,41.2
		c23.4,16.5,51.1,26.8,79.6,29.6c28.5,2.8,57.7-1.9,83.9-13.6c21.1-9.4,40.2-23.3,55.8-40.4c16.3-17.9,28.6-39.3,35.8-62.3
		c8.9-28.4,10-59.2,3.1-88.2c-6.6-28.1-20.8-54.3-40.5-75.4c-14.9-15.9-32.9-28.9-52.7-38C294.9,336.8,267,331.8,239.6,333.6z
		 M245.5,317.9h10.4c14.5,0.5,28.9,2.5,42.9,6.4c23.1,6.3,44.9,17.3,63.8,32c23.1,18,41.8,41.6,53.9,68.2
		c10,21.9,15.5,45.8,16.3,69.8v11.2c-0.5,14.6-2.6,29.1-6.6,43.1c-6.7,24.2-18.6,47-34.5,66.5c-15.2,18.6-34.1,34.2-55.3,45.6
		c-24,12.9-51,20.2-78.2,21.3c-0.5,0-0.9,0-1.4,0.1h-12.3c-13.6-0.5-27.1-2.4-40.2-5.9c-26.7-7-51.7-20.2-72.5-38.2
		c-13.9-12-26-26.1-35.7-41.7c-13.9-22.2-22.9-47.4-26.1-73.3c-0.8-5.9-1.1-11.8-1.4-17.7v-10.4c0.3-7.6,0.9-15.2,2.1-22.7
		c3.2-21.1,10.3-41.6,20.6-60.2c10.9-19.7,25.6-37.4,42.9-51.8c18.4-15.3,39.8-27,62.7-34.1C212.6,321.1,229,318.4,245.5,317.9z"/>
	<path class="st0" d="M215.6,385.5c0,7.4,0,14.9,0,22.3c3.1,1.9,7,2.7,10.6,2.3c2.2-0.3,4.4-1.4,5.5-3.4c1.6-2.9,1.7-6.3,1.8-9.6
		c0-3.5,0-7.3-1.8-10.4c-1-1.9-3-3.1-5.1-3.4C222.8,382.8,218.9,383.6,215.6,385.5z M206.6,356.4c3,0,6,0,9,0c0,7.5,0,14.9,0,22.4
		c4.9-3.1,11.1-4,16.7-2.3c3.5,1.1,6.5,3.8,7.9,7.2c2.2,4.8,2.4,10.2,2.2,15.4c-0.2,4.7-1,9.7-3.9,13.6c-2.1,2.9-5.6,4.6-9.1,5
		c-5.6,0.8-11.6-0.5-16.2-4c-0.6,1-1,2.1-1.5,3.2c-1.8,0-3.5,0-5.3,0C206.6,396.7,206.6,376.5,206.6,356.4z"/>
	<path class="st0" d="M282.1,359.1c3.3-1.4,7.3,1,7.8,4.5c0.6,3.4-2.4,6.9-5.8,6.7c-3.5,0.1-6.5-3.5-5.7-6.9
		C278.8,361.5,280.2,359.8,282.1,359.1z"/>
	<path class="st0" d="M254.1,376.6c3.1-1,6.4-1.1,9.7-1c3.5,0.1,7,0.6,10.3,2c0,2.6,0,5.1,0,7.7c-4-1.5-8.2-2.3-12.4-2.2
		c-2.2,0-4.5,0.2-6.3,1.6c-1.4,1.2-1.6,3.2-1.2,4.9c0.3,1.1,1.2,1.9,2.3,2.3c2.7,1,5.6,0.8,8.3,1.3c3.1,0.6,6.5,1.4,8.7,3.8
		c2,2.1,2.5,5.1,2.4,7.8c0.1,3.6-1.4,7.4-4.4,9.6c-3.4,2.6-7.9,3.3-12.1,3.4c-4.7,0-9.5-0.5-14-2.1c0-2.6,0-5.1,0-7.7
		c5.3,1.9,11,2.8,16.6,1.9c1.8-0.3,3.7-1,4.6-2.7c0.6-1.4,0.6-3,0-4.4c-0.9-1.8-3.2-2.3-5.1-2.5c-3.9-0.4-8-0.8-11.6-2.6
		c-2.2-1.1-3.9-3.1-4.4-5.5c-0.8-3.6-0.5-7.6,1.5-10.6C248.7,379.1,251.3,377.5,254.1,376.6z"/>
	<path class="st0" d="M279.7,376.6c3,0,5.9,0,8.9,0c0.1,10.2,0,20.3,0,30.5c0,0.8,0.1,1.7,0.7,2.3c0.7,0.7,1.8,0.7,2.7,0.7
		c0,2.4,0,4.9,0,7.3c-2.9,0.4-6,0.1-8.5-1.5c-2.8-1.7-3.8-5.1-3.8-8.1C279.6,397.3,279.7,386.9,279.7,376.6z"/>
	<path class="st0" d="M299.7,406.3c3.1-0.9,6.5,1.3,7.1,4.4c0.8,3.1-1.5,6.4-4.5,7c-3,0.7-6.3-1.5-6.9-4.5
		C294.7,410.2,296.8,407,299.7,406.3z"/>
	<path class="st0" d="M172.4,445.8c8.9-9,21.3-14.5,34-15.2c12.1-0.7,24.4,3.1,33.9,10.6c4.2,3.3,7.8,7.2,10.7,11.6
		c3.3-4.7,7.1-8.9,11.7-12.3c9.4-7.1,21.4-10.6,33.1-9.9c12.1,0.6,24,5.9,32.6,14.4c9,8.7,14.5,20.9,15,33.4
		c-61.8,0-123.7,0-185.5,0C158.4,466.3,163.8,454.4,172.4,445.8z"/>
	<path class="st0" d="M159.8,493.4c60.5,0,120.9,0,181.4,0c-14.9,25.6-30.1,51.1-45.1,76.7c-15.1,25.6-30.2,51.2-45.3,76.8
		c-16-27-32.1-54-48.1-81C188.4,541.7,174,517.6,159.8,493.4z"/>
	<polygon class="st1" points="931.4,603.2 833.1,603.2 833.1,592.3 615.9,592.3 615.9,603.2 517.6,603.2 517.6,608.4 615.9,608.4 
		615.9,619.2 833.1,619.2 833.1,608.4 931.4,608.4 	"/>
	<polygon class="st2" points="931.4,603.2 833.1,603.2 833.1,592.3 615.9,592.3 615.9,603.2 517.6,603.2 517.6,608.4 615.9,608.4 
		615.9,619.2 833.1,619.2 833.1,608.4 931.4,608.4 	"/>
	<rect x="645.4" y="599.1" class="st3" width="3.5" height="15.1"/>
	<path class="st3" d="M651.3,609.2l3.4-0.3c0.2,1,0.6,1.7,1.2,2.2c0.6,0.5,1.5,0.7,2.5,0.7c1.1,0,2-0.2,2.5-0.6
		c0.6-0.4,0.8-0.9,0.8-1.5c0-0.4-0.1-0.7-0.4-0.9c-0.2-0.2-0.7-0.5-1.2-0.7c-0.4-0.1-1.4-0.3-2.8-0.7c-1.9-0.4-3.2-0.9-3.9-1.5
		c-1.1-0.8-1.6-1.8-1.6-3c0-0.8,0.2-1.5,0.8-2.1c0.5-0.7,1.2-1.2,2.2-1.5c0.9-0.4,2.1-0.5,3.4-0.5c2.2,0,3.8,0.4,4.9,1.2
		c1.1,0.8,1.7,1.9,1.7,3.3l-3.5,0.1c-0.1-0.8-0.5-1.3-0.9-1.7c-0.5-0.3-1.2-0.5-2.2-0.5c-1,0-1.8,0.2-2.4,0.5
		c-0.4,0.2-0.6,0.5-0.6,0.9c0,0.3,0.2,0.7,0.5,0.9c0.4,0.3,1.5,0.7,3.2,1c1.7,0.4,2.9,0.7,3.8,1.1c0.8,0.4,1.4,0.9,1.9,1.5
		c0.5,0.7,0.7,1.5,0.7,2.4c0,0.9-0.3,1.7-0.8,2.4c-0.5,0.8-1.3,1.3-2.3,1.7c-1,0.4-2.2,0.5-3.8,0.5c-2.2,0-3.9-0.4-5-1.3
		C652.2,612.2,651.5,610.9,651.3,609.2z"/>
	<path class="st3" d="M667.6,606.7c0-1.5,0.3-2.8,0.8-3.9c0.4-0.8,0.9-1.4,1.6-2.1c0.7-0.6,1.4-1.1,2.2-1.4c1.1-0.4,2.3-0.6,3.7-0.6
		c2.5,0,4.6,0.7,6.1,2.1c1.5,1.4,2.3,3.3,2.3,5.8c0,2.4-0.8,4.3-2.3,5.7c-1.5,1.4-3.5,2.1-6.1,2.1c-2.6,0-4.6-0.7-6.1-2.1
		C668.3,611,667.6,609.1,667.6,606.7z M671.2,606.6c0,1.7,0.4,3,1.4,3.9c0.9,0.9,2,1.3,3.4,1.3c1.4,0,2.5-0.4,3.4-1.3
		c0.9-0.9,1.3-2.2,1.3-3.9c0-1.7-0.4-3-1.3-3.9c-0.9-0.8-2-1.3-3.5-1.3c-1.4,0-2.6,0.4-3.5,1.3C671.6,603.6,671.2,604.9,671.2,606.6
		z"/>
	<polygon class="st3" points="687.7,614.4 685.3,614.4 689.5,598.8 692,598.8 	"/>
	<rect x="693.6" y="599.1" class="st3" width="3.5" height="15.1"/>
	<polygon class="st3" points="713.6,614.1 700.5,614.1 700.5,599.1 713.3,599.1 713.3,601.6 703.9,601.6 703.9,605 712.6,605 
		712.6,607.5 703.9,607.5 703.9,611.6 713.6,611.6 	"/>
	<path class="st3" d="M727.6,608.6l3.4,0.9c-0.5,1.6-1.4,2.9-2.6,3.7c-1.2,0.8-2.7,1.2-4.6,1.2c-2.3,0-4.2-0.7-5.7-2.1
		c-1.5-1.4-2.2-3.2-2.2-5.6c0-2.5,0.7-4.5,2.2-5.9c1.5-1.4,3.4-2.1,5.8-2.1c2.1,0,3.8,0.5,5.1,1.6c0.8,0.6,1.4,1.6,1.8,2.8l-3.4,0.7
		c-0.2-0.8-0.6-1.4-1.3-1.9c-0.6-0.4-1.4-0.7-2.4-0.7c-1.3,0-2.3,0.4-3.1,1.2c-0.8,0.8-1.2,2.1-1.2,3.9c0,1.9,0.4,3.3,1.2,4.1
		c0.8,0.8,1.8,1.2,3.1,1.2c0.9,0,1.7-0.3,2.4-0.8C726.8,610.5,727.3,609.7,727.6,608.6z"/>
	<rect x="740.6" y="599.1" class="st3" width="3.5" height="15.1"/>
	<path class="st3" d="M755.4,602h-7.5v-2.7h11.3v2.1c-0.9,0.8-1.9,1.9-2.8,3.4c-1,1.5-1.7,3.1-2.2,4.8c-0.5,1.7-0.8,3.2-0.8,4.5
		h-3.2c0.1-2.1,0.5-4.2,1.5-6.4C752.6,605.6,753.8,603.7,755.4,602z"/>
	<path class="st3" d="M768.1,599c1.7,0,3,0.5,3.9,1.6c1.1,1.2,1.7,3.3,1.7,6.1c0,2.9-0.6,4.9-1.7,6.2c-0.9,1-2.2,1.6-3.9,1.6
		c-1.7,0-3-0.6-4.1-1.7c-1-1.1-1.6-3.1-1.6-6c0-2.8,0.6-4.9,1.7-6.1C765.1,599.5,766.4,599,768.1,599z M768.1,601.4
		c-0.4,0-0.8,0.1-1.1,0.3c-0.3,0.2-0.6,0.6-0.7,1.2c-0.2,0.8-0.3,2-0.3,3.8c0,1.8,0.1,3,0.3,3.6c0.2,0.7,0.5,1.1,0.8,1.3
		c0.3,0.2,0.7,0.3,1.1,0.3c0.4,0,0.8-0.1,1.1-0.3c0.3-0.2,0.6-0.6,0.7-1.2c0.2-0.7,0.3-2,0.3-3.8c0-1.8-0.1-3-0.3-3.6
		c-0.2-0.7-0.5-1.1-0.8-1.3C768.8,601.5,768.5,601.4,768.1,601.4z"/>
	<path class="st3" d="M781.7,611.5h6.6v2.7h-11.6c0.1-1,0.5-2,1.1-2.9c0.6-0.9,1.9-2.1,3.7-3.6c1.5-1.2,2.4-2,2.8-2.5
		c0.4-0.6,0.7-1.2,0.7-1.8c0-0.6-0.2-1.1-0.6-1.5c-0.4-0.4-0.9-0.5-1.6-0.5c-0.7,0-1.2,0.2-1.6,0.5c-0.4,0.4-0.6,1-0.7,1.8l-3.3-0.3
		c0.2-1.6,0.8-2.7,1.9-3.4c1-0.7,2.3-1,3.9-1c1.7,0,3,0.4,4,1.2c1,0.8,1.5,1.8,1.5,3c0,0.7-0.1,1.3-0.4,1.9
		c-0.3,0.6-0.7,1.3-1.3,1.9c-0.4,0.4-1.1,1.1-2.2,1.9c-1,0.8-1.7,1.4-2,1.7C782.1,610.9,781.9,611.2,781.7,611.5z"/>
	<rect x="792.3" y="599.1" class="st3" width="3.5" height="15.1"/>
	<path class="st1" d="M707.8,378.5c-0.4,2-1,2.7-2,3.7c-8.3,8.7-14.1,11.9-15.6,18.6c-0.9,3.8-1.8,10.9-1.8,10.9s-3.1-7.9-4-12.2
		c-0.9-4,0.3-8.6,2.5-10.7c4-3.9,16.6-10.8,17.5-12.8c0.8-1.7,1.6-3.7,2.4-3.8c0.4,0,0.9,0,0.9,0v1h0.6
		C708.3,373.1,708.1,376.5,707.8,378.5z M733.9,393c-0.5-1.3-1.3-2.9-1.3-2.9s-0.4,3.6-1,5.9c-0.6,2.4-1.7,4.9-3.3,6.5
		c-1.9,1.9-5.6,4.4-5.6,4.4l0.5-8.8c0.1-1.6,0.1-2-0.5-3.6c-0.5-1.5-1-3-1.9-4.3c-1.7-2.3-3.2-2.6-2.5-4.2c0.7-1.7,3.8-4.1,5.8-6.4
		c9.4-10.5,7.8-30,4.5-41.2c-1.9-6.6-5.5-16.1-5.5-16.1l-0.8,19.8c-0.1,1.6-0.1,2-0.5,3.6c-2.1,8.5-5,12.6-11.8,17.3
		c-20.1,13.9-38.9,18.3-40.6,38.3c-0.2,2.3,0.6,14.8,2.5,16c0.7,0.4,1.6,0.1,2.5,0.8c2.1,1.7,1.9,3.1,3.1,2.7
		c0.5-0.1,1.1-0.5,1.3-1.3c0.4-1.3,0-3.7,0-3.7h4.1l2.7,4.1c0,0,1.4-3.8,2.5-5.1c1-1.2,3.1-0.9,3.9,0.5c0.7,1.2,1,3.5,2.7,2.5
		c0.8-0.4,0.9-1.8,1.4-2.9c0.6-1.2,1.2-1.4,2.7-1.2c0.8,0.1,0.9,0.2,1.7,1.7l1.6,3.2c0,0,1.3-3.5,2.7-4.5c0.8-0.6,1.7-0.3,2.5-0.3
		c1.2,0,1.3,0.2,1.9,1.8l1.3,3.8c0,0,2.4-2.8,2.9-4.2c0.4-0.8,0.5-1,2.2-0.8c0.6,0.1,1,0.2,1.3,0.5c1.2,1.3,0.3,5.2,2.8,4
		c0.9-0.4,1.3-1.9,2.2-2.7c0.8-0.7,2.7-0.9,3.3-0.3c0,0,0.8,5.5,2,5.4c0.9,0,2-3.1,3.4-3.7c0.6-0.2,0.6,0.1,1.4,0.3
		c0.4,0.1,0.7-0.2,1-0.5C736.9,413.1,735.9,397.8,733.9,393z"/>
	<path class="st2" d="M707.8,378.5c-0.4,2-1,2.7-2,3.7c-8.3,8.7-14.1,11.9-15.6,18.6c-0.9,3.8-1.8,10.9-1.8,10.9s-3.1-7.9-4-12.2
		c-0.9-4,0.3-8.6,2.5-10.7c4-3.9,16.6-10.8,17.5-12.8c0.8-1.7,1.6-3.7,2.4-3.8c0.4,0,0.9,0,0.9,0v1h0.6
		C708.3,373.1,708.1,376.5,707.8,378.5z M733.9,393c-0.5-1.3-1.3-2.9-1.3-2.9s-0.4,3.6-1,5.9c-0.6,2.4-1.7,4.9-3.3,6.5
		c-1.9,1.9-5.6,4.4-5.6,4.4l0.5-8.8c0.1-1.6,0.1-2-0.5-3.6c-0.5-1.5-1-3-1.9-4.3c-1.7-2.3-3.2-2.6-2.5-4.2c0.7-1.7,3.8-4.1,5.8-6.4
		c9.4-10.5,7.8-30,4.5-41.2c-1.9-6.6-5.5-16.1-5.5-16.1l-0.8,19.8c-0.1,1.6-0.1,2-0.5,3.6c-2.1,8.5-5,12.6-11.8,17.3
		c-20.1,13.9-38.9,18.3-40.6,38.3c-0.2,2.3,0.6,14.8,2.5,16c0.7,0.4,1.6,0.1,2.5,0.8c2.1,1.7,1.9,3.1,3.1,2.7
		c0.5-0.1,1.1-0.5,1.3-1.3c0.4-1.3,0-3.7,0-3.7h4.1l2.7,4.1c0,0,1.4-3.8,2.5-5.1c1-1.2,3.1-0.9,3.9,0.5c0.7,1.2,1,3.5,2.7,2.5
		c0.8-0.4,0.9-1.8,1.4-2.9c0.6-1.2,1.2-1.4,2.7-1.2c0.8,0.1,0.9,0.2,1.7,1.7l1.6,3.2c0,0,1.3-3.5,2.7-4.5c0.8-0.6,1.7-0.3,2.5-0.3
		c1.2,0,1.3,0.2,1.9,1.8l1.3,3.8c0,0,2.4-2.8,2.9-4.2c0.4-0.8,0.5-1,2.2-0.8c0.6,0.1,1,0.2,1.3,0.5c1.2,1.3,0.3,5.2,2.8,4
		c0.9-0.4,1.3-1.9,2.2-2.7c0.8-0.7,2.7-0.9,3.3-0.3c0,0,0.8,5.5,2,5.4c0.9,0,2-3.1,3.4-3.7c0.6-0.2,0.6,0.1,1.4,0.3
		c0.4,0.1,0.7-0.2,1-0.5C736.9,413.1,735.9,397.8,733.9,393z"/>
	<path class="st4" d="M670,428.9l3.2,9.6c0,0,8.6-2.2,15.1-3.4c7.7-1.4,29.1-1.2,38.9,2c1.9,0.6,4.1,1.4,4.1,1.4s1-1.8,1.7-3.2
		c1.3-2.7,1.6-4.3,2.2-6.5c0.4-1.6,0.3-1.8-0.6-2.2c-0.7-0.3-1.3-0.5-2-1.2c-0.9-1-1.9-2.8-1.9-2.8s-1.4,0.9-2.4,1.3
		c-1.4,0.6-2.8,0.4-3.9-0.9c-0.7-0.9-1.5-2.4-1.5-2.4s-1.8,1.4-2.9,1.9c-1.1,0.5-2.7,0.4-3.4-0.5c-1.2-1.4-0.8-3.1-2.3-2.5
		c-2.2,0.9-2.5,2.7-4.8,2.2c-0.4-0.1-0.7-0.3-1.1-0.6c-0.9-0.8-2.4-2.5-2.4-2.5s-1.5,1.8-2.6,2.6c-0.7,0.5-2.1,0.4-3-0.3
		c-1-0.9-2.5-2.3-2.5-2.3s-1.6,2.4-2.9,3.2c-0.8,0.5-1.7,0.2-2.5-0.3c-1.1-0.8-2.2-1.9-3-1.8c-1.1,0.1-1.7,2.2-2.9,3.2
		c-0.6,0.5-2.1,0.4-3-0.3c-1-0.9-2.3-2.5-2.3-2.5s-0.7,2.2-1.6,3.6c-0.5,0.8-3,1.7-3.6,1.3c-1.3-0.9-2-3.1-2.5-2.9
		c-0.5,0.2-0.8,2.1-2.2,3.6c-0.4,0.4-0.9,0.8-1.4,1.1C669.4,427.1,669.4,427.3,670,428.9z"/>
	<path class="st4" d="M881.3,478.8c-0.5,3.1-2,5.8-5.9,6.6c-1.2,0.3-1.5,0.3-3.3,0.3H858v-15.6h12.9c1.8,0,2.1,0,3.6,0.1
		C879.7,470.5,882,474.4,881.3,478.8z M879.9,511.3c-0.4,0.6-1.8,1.7-3.3,2.2c-0.9,0.3-1.2,0.3-3,0.4l-15.6,0.4v-15.6h15.6
		c1.8,0,2.1,0,3,0.3C881.6,500.6,882.7,507.4,879.9,511.3z M758.5,502.7l9.1-26.2l8,26.2H758.5z M712.2,531.9l-2.2-0.5l3.3-46.1
		L712.2,531.9z M707.8,531.9h-2.2v-1.5l2.2-65.3V531.9z M701.1,531.9l-0.6-59.3l1.1,0.5l1.7,58.3L701.1,531.9z M695.9,531.9
		l-2.6-60.3h0.6l4.5,60.3H695.9z M554.6,502.7l9.3-26.2l8.2,26.2H554.6z M903.6,494c-2.5-0.9-5.7-1.7-5.7-1.7s4.8-2.3,7.7-4.1
		c13.1-8,12.1-28.2,0.3-36.4c-5.9-4.1-12.9-5.8-20.6-6.3c-14.5-1-62.3,0-62.3,0v90.1l-34.8-90.1h-37.1l-34,86.7l5.5-79.7
		c0,0,6.2-1.7,9.4-3.5c5.1-2.9,3.5-6.8-2-9.3c-12.4-5.8-39.9-5.3-52.8-1c-6.7,2.2-10.4,5.4-7,8.8c1.6,1.6,4.7,3.1,7,3.8
		c3.2,0.9,5,0.2,6.1,1.5c1.3,1.6,5.2,40.8,5.2,40.8l-40.1-48.1h-29.1l-0.6,89.1l-34.3-89.1h-37.6l-34.9,92.5h30.1l6-15.1h30.2
		l4.3,13.5v1.6H651l0.6-42.2l35.6,42.2h58.6l5.9-15.1h30.2l4.9,15.1h101.7c1.8,0,2.2,0,4-0.2c7.8-1,15.8-5.7,19.2-10.3
		C919.3,516.9,917.4,498.9,903.6,494z"/>
	<path class="st4" d="M526.6,549.2l10.6,22.7h-5.8l-2.3-5.2h-10.6l-2.2,5.2h-5.7l10.3-22.7H526.6z M520.1,563h7.2l-3.6-8.4
		L520.1,563z"/>
	<path class="st4" d="M575.5,563.6l5.2,1.4c-0.8,2.5-2.1,4.3-4,5.5c-1.8,1.2-4.2,1.8-7,1.8c-3.5,0-6.4-1-8.7-3.1
		c-2.3-2.1-3.4-4.9-3.4-8.5c0-3.8,1.1-6.7,3.4-8.8c2.3-2.1,5.3-3.1,9-3.1c3.2,0,5.9,0.8,7.9,2.5c1.2,1,2.1,2.4,2.7,4.2l-5.3,1.1
		c-0.3-1.2-1-2.1-2-2.8c-1-0.7-2.2-1-3.6-1c-2,0-3.6,0.6-4.8,1.8c-1.2,1.2-1.8,3.2-1.8,5.9c0,2.9,0.6,4.9,1.8,6.1
		c1.2,1.2,2.8,1.8,4.7,1.8c1.4,0,2.7-0.4,3.7-1.2C574.3,566.5,575,565.3,575.5,563.6z"/>
	<path class="st4" d="M620.7,563.6l5.2,1.4c-0.8,2.5-2.1,4.3-4,5.5c-1.9,1.2-4.2,1.8-7,1.8c-3.5,0-6.4-1-8.7-3.1
		c-2.3-2.1-3.4-4.9-3.4-8.5c0-3.8,1.1-6.7,3.4-8.8c2.3-2.1,5.3-3.1,9-3.1c3.3,0,5.9,0.8,7.9,2.5c1.2,1,2.1,2.4,2.7,4.2l-5.3,1.1
		c-0.3-1.2-1-2.1-2-2.8c-1-0.7-2.2-1-3.6-1c-2,0-3.6,0.6-4.8,1.8c-1.2,1.2-1.8,3.2-1.8,5.9c0,2.9,0.6,4.9,1.8,6.1
		c1.2,1.2,2.8,1.8,4.7,1.8c1.4,0,2.6-0.4,3.7-1.2C619.6,566.5,620.3,565.3,620.7,563.6z"/>
	<path class="st4" d="M654.4,572H649v-22.7h11.3c2.8,0,4.9,0.2,6.2,0.6c1.3,0.4,2.3,1.1,3.1,2.2c0.8,1.1,1.2,2.3,1.2,3.6
		c0,1.7-0.6,3.1-1.8,4.2c-1.2,1.1-2.9,1.8-5.2,2.1c1.2,0.6,2.1,1.2,2.9,1.9c0.8,0.7,1.8,1.9,3,3.7l3.2,4.4h-6.4l-3.9-4.9
		c-1.4-1.8-2.3-2.9-2.8-3.3c-0.5-0.5-1-0.8-1.6-0.9c-0.6-0.2-1.5-0.3-2.7-0.3h-1.1V572z M654.4,553.1v5.8h4c2.6,0,4.2-0.1,4.8-0.3
		c0.6-0.2,1.1-0.5,1.5-1c0.3-0.5,0.5-1,0.5-1.7c0-0.8-0.2-1.4-0.7-1.9c-0.5-0.5-1.1-0.8-2-0.9c-0.4-0.1-1.7-0.1-3.9-0.1H654.4z"/>
	<polygon class="st4" points="714.4,572 694.3,572 694.3,549.2 713.9,549.2 713.9,553.1 699.6,553.1 699.6,558.1 712.9,558.1 
		712.9,562 699.6,562 699.6,568.1 714.4,568.1 	"/>
	<path class="st4" d="M737.5,572v-22.7h9.8c2.2,0,3.9,0.1,5,0.4c1.5,0.4,2.9,1.1,4,2.1c1.1,1,2,2.2,2.5,3.7c0.6,1.4,0.9,3.2,0.9,5.4
		c0,1.9-0.3,3.5-0.8,4.8c-0.7,1.7-1.6,3-2.8,4c-0.9,0.8-2.2,1.4-3.8,1.8c-1.2,0.3-2.8,0.5-4.7,0.5H737.5z M745.2,553.1h-2.4v15.1h4
		c1.5,0,2.6-0.1,3.2-0.2c0.9-0.2,1.6-0.5,2.2-0.9c0.6-0.5,1-1.2,1.4-2.2c0.4-1,0.5-2.4,0.5-4.2c0-1.8-0.2-3.1-0.5-4
		c-0.4-0.9-0.9-1.7-1.5-2.2c-0.7-0.5-1.5-0.9-2.5-1.1C748.9,553.2,747.4,553.1,745.2,553.1z"/>
	<rect x="782.6" y="549.2" class="st4" width="5.4" height="22.7"/>
	<polygon class="st4" points="822.9,572 817.5,572 817.5,553.1 809.6,553.1 809.6,549.2 830.7,549.2 830.7,553.1 822.9,553.1 	"/>
	<polygon class="st4" points="872.8,572 852.7,572 852.7,549.2 872.3,549.2 872.3,553.1 858,553.1 858,558.1 871.3,558.1 871.3,562 
		858,562 858,568.1 872.8,568.1 	"/>
	<path class="st4" d="M895.9,572v-22.7h9.8c2.2,0,3.9,0.1,5.1,0.4c1.5,0.4,2.9,1.1,4,2.1c1.1,1,2,2.2,2.5,3.7
		c0.6,1.4,0.9,3.2,0.9,5.4c0,1.9-0.3,3.5-0.8,4.8c-0.7,1.7-1.6,3-2.8,4c-0.9,0.8-2.2,1.4-3.8,1.8c-1.2,0.3-2.8,0.5-4.7,0.5H895.9z
		 M903.6,553.1h-2.4v15.1h4c1.5,0,2.6-0.1,3.2-0.2c0.9-0.2,1.6-0.5,2.2-0.9c0.6-0.5,1-1.2,1.4-2.2c0.4-1,0.5-2.4,0.5-4.2
		c0-1.8-0.2-3.1-0.5-4c-0.4-0.9-0.9-1.7-1.5-2.2c-0.7-0.5-1.5-0.9-2.5-1.1C907.3,553.2,905.8,553.1,903.6,553.1z"/>
	<polygon class="st4" points="548,651 544.2,651 544.2,631 550.3,631 553.9,644.6 557.4,631 563.5,631 563.5,651 559.7,651 
		559.7,635.2 555.8,651 551.9,651 548,635.2 	"/>
	<path class="st4" d="M577.4,631l8,20H581l-1.7-4.5h-8l-1.6,4.5h-4.3l7.7-20H577.4z M572.6,643.1h5.4l-2.7-7.4L572.6,643.1z"/>
	<polygon class="st4" points="591.3,651 587.6,651 587.6,631 591.5,631 599.6,644.3 599.6,631 603.4,631 603.4,651 599.3,651 
		591.3,637.9 	"/>
	<path class="st4" d="M617.6,631l8,20h-4.4l-1.7-4.5h-8l-1.6,4.5h-4.3l7.8-20H617.6z M612.7,643.1h5.4l-2.7-7.4L612.7,643.1z"/>
	<path class="st4" d="M641.5,643.6h-4.6v-3.4h8.7v8c-0.9,0.8-2.1,1.5-3.7,2.2c-1.6,0.6-3.2,0.9-4.9,0.9c-2.1,0-3.9-0.4-5.4-1.3
		c-1.5-0.9-2.7-2.1-3.5-3.8c-0.8-1.6-1.2-3.4-1.2-5.3c0-2.1,0.4-3.9,1.3-5.5c0.9-1.6,2.1-2.9,3.8-3.7c1.3-0.7,2.9-1,4.8-1
		c2.5,0,4.4,0.5,5.8,1.6c1.4,1,2.3,2.5,2.7,4.3l-4,0.8c-0.3-1-0.8-1.8-1.6-2.3c-0.8-0.6-1.7-0.8-2.9-0.8c-1.7,0-3.2,0.6-4.2,1.7
		c-1,1.1-1.5,2.8-1.5,5c0,2.4,0.5,4.2,1.6,5.3c1,1.2,2.4,1.8,4.1,1.8c0.8,0,1.7-0.2,2.5-0.5c0.8-0.3,1.6-0.7,2.2-1.2V643.6z"/>
	<polygon class="st4" points="664.4,651 649.3,651 649.3,631 664.1,631 664.1,634.4 653.3,634.4 653.3,638.8 663.3,638.8 
		663.3,642.2 653.3,642.2 653.3,647.6 664.4,647.6 	"/>
	<polygon class="st4" points="671.5,651 667.8,651 667.8,631 673.8,631 677.4,644.6 681,631 687,631 687,651 683.3,651 683.3,635.2 
		679.3,651 675.5,651 671.5,635.2 	"/>
	<polygon class="st4" points="706.1,651 691,651 691,631 705.8,631 705.8,634.4 695,634.4 695,638.8 705,638.8 705,642.2 695,642.2 
		695,647.6 706.1,647.6 	"/>
	<polygon class="st4" points="713.3,651 709.6,651 709.6,631 713.5,631 721.7,644.3 721.7,631 725.4,631 725.4,651 721.4,651 
		713.3,637.9 	"/>
	<polygon class="st4" points="738.1,651 734.1,651 734.1,634.4 728.2,634.4 728.2,631 744,631 744,634.4 738.1,634.4 	"/>
	<path class="st4" d="M753.3,644.5l3.9-0.4c0.2,1.3,0.7,2.3,1.4,2.9c0.7,0.6,1.7,0.9,2.9,0.9c1.3,0,2.3-0.3,2.9-0.8
		c0.7-0.5,1-1.2,1-1.9c0-0.5-0.2-0.9-0.4-1.2c-0.3-0.3-0.8-0.6-1.4-0.9c-0.5-0.2-1.5-0.4-3.2-0.9c-2.1-0.5-3.7-1.2-4.5-2
		c-1.2-1.1-1.8-2.4-1.8-4c0-1,0.3-2,0.8-2.9c0.6-0.9,1.4-1.6,2.5-2c1.1-0.5,2.4-0.7,3.9-0.7c2.5,0,4.4,0.6,5.7,1.7
		c1.3,1.1,1.9,2.6,2,4.4l-4,0.2c-0.2-1-0.5-1.8-1.1-2.2c-0.6-0.4-1.4-0.7-2.5-0.7c-1.2,0-2.1,0.2-2.8,0.7c-0.4,0.3-0.6,0.7-0.6,1.2
		c0,0.5,0.2,0.9,0.6,1.2c0.5,0.4,1.7,0.9,3.7,1.3c2,0.5,3.4,0.9,4.3,1.4c0.9,0.5,1.7,1.2,2.2,2c0.5,0.9,0.8,1.9,0.8,3.2
		c0,1.1-0.3,2.2-0.9,3.2c-0.6,1-1.5,1.7-2.7,2.2c-1.2,0.5-2.6,0.7-4.3,0.7c-2.5,0-4.4-0.6-5.8-1.8
		C754.4,648.4,753.6,646.7,753.3,644.5z"/>
	<polygon class="st4" points="782.1,651 778.1,651 778.1,642.6 770.8,631 775.5,631 780.2,638.9 784.8,631 789.4,631 782.1,642.6 	
		"/>
	<path class="st4" d="M790.4,644.5l3.9-0.4c0.2,1.3,0.7,2.3,1.4,2.9c0.7,0.6,1.7,0.9,2.9,0.9c1.3,0,2.3-0.3,2.9-0.8
		c0.6-0.5,1-1.2,1-1.9c0-0.5-0.1-0.9-0.4-1.2c-0.3-0.3-0.8-0.6-1.4-0.9c-0.5-0.2-1.5-0.4-3.2-0.9c-2.1-0.5-3.7-1.2-4.5-2
		c-1.2-1.1-1.8-2.4-1.8-4c0-1,0.3-2,0.9-2.9c0.6-0.9,1.4-1.6,2.5-2c1.1-0.5,2.4-0.7,3.9-0.7c2.5,0,4.4,0.6,5.6,1.7
		c1.3,1.1,1.9,2.6,2,4.4l-4,0.2c-0.2-1-0.5-1.8-1.1-2.2c-0.6-0.4-1.4-0.7-2.6-0.7c-1.2,0-2.1,0.2-2.7,0.7c-0.4,0.3-0.6,0.7-0.6,1.2
		c0,0.5,0.2,0.9,0.6,1.2c0.5,0.4,1.7,0.9,3.7,1.3c2,0.5,3.4,0.9,4.3,1.4c0.9,0.5,1.7,1.2,2.2,2c0.5,0.9,0.8,1.9,0.8,3.2
		c0,1.1-0.3,2.2-0.9,3.2c-0.6,1-1.5,1.7-2.7,2.2c-1.2,0.5-2.6,0.7-4.3,0.7c-2.5,0-4.5-0.6-5.8-1.8
		C791.5,648.4,790.7,646.7,790.4,644.5z"/>
	<polygon class="st4" points="818.5,651 814.5,651 814.5,634.4 808.6,634.4 808.6,631 824.4,631 824.4,634.4 818.5,634.4 	"/>
	<polygon class="st4" points="842.1,651 827,651 827,631 841.7,631 841.7,634.4 831,634.4 831,638.8 841,638.8 841,642.2 831,642.2 
		831,647.6 842.1,647.6 	"/>
	<polygon class="st4" points="849.2,651 845.5,651 845.5,631 851.5,631 855.1,644.6 858.7,631 864.7,631 864.7,651 860.9,651 
		860.9,635.2 857,651 853.1,651 849.2,635.2 	"/>
	<path class="st4" d="M867.6,644.5l3.9-0.4c0.2,1.3,0.7,2.3,1.4,2.9c0.7,0.6,1.7,0.9,2.9,0.9c1.3,0,2.3-0.3,2.9-0.8
		c0.7-0.5,1-1.2,1-1.9c0-0.5-0.1-0.9-0.4-1.2c-0.3-0.3-0.8-0.6-1.5-0.9c-0.5-0.2-1.5-0.4-3.2-0.9c-2.1-0.5-3.7-1.2-4.5-2
		c-1.2-1.1-1.8-2.4-1.8-4c0-1,0.3-2,0.9-2.9c0.6-0.9,1.4-1.6,2.5-2c1.1-0.5,2.4-0.7,3.9-0.7c2.5,0,4.4,0.6,5.7,1.7
		c1.3,1.1,1.9,2.6,2,4.4l-4,0.2c-0.2-1-0.5-1.8-1.1-2.2c-0.6-0.4-1.4-0.7-2.6-0.7c-1.2,0-2.1,0.2-2.7,0.7c-0.4,0.3-0.6,0.7-0.6,1.2
		c0,0.5,0.2,0.9,0.6,1.2c0.5,0.4,1.7,0.9,3.7,1.3c2,0.5,3.4,0.9,4.3,1.4c0.9,0.5,1.7,1.2,2.2,2c0.5,0.9,0.8,1.9,0.8,3.2
		c0,1.1-0.3,2.2-0.9,3.2c-0.6,1-1.5,1.7-2.7,2.2c-1.2,0.5-2.6,0.7-4.3,0.7c-2.5,0-4.5-0.6-5.8-1.8
		C868.7,648.4,867.9,646.7,867.6,644.5z"/>
	<path class="st4" d="M578.2,674.2l3.9,1.2c-0.6,2.2-1.6,3.8-3,4.9c-1.4,1.1-3.2,1.6-5.3,1.6c-2.6,0-4.8-0.9-6.5-2.7
		c-1.7-1.8-2.5-4.3-2.5-7.4c0-3.3,0.9-5.9,2.6-7.8c1.7-1.8,4-2.8,6.7-2.8c2.4,0,4.4,0.7,5.9,2.2c0.9,0.8,1.6,2.1,2,3.7l-4,1
		c-0.2-1-0.7-1.9-1.5-2.5c-0.7-0.6-1.6-0.9-2.7-0.9c-1.5,0-2.7,0.5-3.6,1.6c-0.9,1.1-1.4,2.8-1.4,5.2c0,2.5,0.5,4.3,1.4,5.4
		c0.9,1.1,2.1,1.6,3.5,1.6c1.1,0,2-0.3,2.7-1C577.4,676.8,577.9,675.7,578.2,674.2z"/>
	<polygon class="st4" points="600.7,681.6 585.6,681.6 585.6,661.6 600.3,661.6 600.3,665 589.6,665 589.6,669.4 599.6,669.4 
		599.6,672.8 589.6,672.8 589.6,678.2 600.7,678.2 	"/>
	<path class="st4" d="M608.2,681.6h-4v-20h8.5c2.1,0,3.7,0.2,4.6,0.5c1,0.4,1.7,1,2.3,1.9c0.6,0.9,0.9,2,0.9,3.1
		c0,1.5-0.4,2.7-1.3,3.7c-0.9,1-2.2,1.6-3.9,1.8c0.9,0.5,1.6,1.1,2.2,1.7c0.6,0.6,1.3,1.7,2.3,3.2l2.4,3.9h-4.8l-2.9-4.3
		c-1-1.6-1.7-2.5-2.1-2.9c-0.4-0.4-0.8-0.7-1.2-0.8c-0.4-0.1-1.1-0.2-2-0.2h-0.8V681.6z M608.2,665v5.1h3c1.9,0,3.1-0.1,3.6-0.2
		c0.5-0.2,0.8-0.4,1.1-0.8c0.3-0.4,0.4-0.9,0.4-1.5c0-0.7-0.2-1.2-0.5-1.6c-0.4-0.4-0.9-0.7-1.5-0.8c-0.3,0-1.3-0.1-2.9-0.1H608.2z"
		/>
	<polygon class="st4" points="632.7,681.6 628.7,681.6 628.7,665 622.8,665 622.8,661.6 638.6,661.6 638.6,665 632.7,665 	"/>
	<rect x="641.1" y="661.6" class="st4" width="4" height="20"/>
	<polygon class="st4" points="653,681.6 648.9,681.6 648.9,661.6 662.6,661.6 662.6,665 653,665 653,669.7 661.3,669.7 661.3,673.1 
		653,673.1 	"/>
	<rect x="665.8" y="661.6" class="st4" width="4" height="20"/>
	<path class="st4" d="M686.4,674.2l3.9,1.2c-0.6,2.2-1.6,3.8-3,4.9c-1.4,1.1-3.1,1.6-5.3,1.6c-2.6,0-4.8-0.9-6.5-2.7
		c-1.7-1.8-2.5-4.3-2.5-7.4c0-3.3,0.9-5.9,2.6-7.8c1.7-1.8,3.9-2.8,6.7-2.8c2.4,0,4.4,0.7,5.9,2.2c0.9,0.8,1.6,2.1,2,3.7l-4,1
		c-0.2-1-0.7-1.9-1.5-2.5c-0.7-0.6-1.6-0.9-2.7-0.9c-1.5,0-2.7,0.5-3.6,1.6c-0.9,1.1-1.4,2.8-1.4,5.2c0,2.5,0.5,4.3,1.4,5.4
		c0.9,1.1,2.1,1.6,3.5,1.6c1.1,0,2-0.3,2.7-1C685.5,676.8,686,675.7,686.4,674.2z"/>
	<path class="st4" d="M703.7,661.6l8,20h-4.4l-1.7-4.5h-8l-1.6,4.5h-4.3l7.7-20H703.7z M698.8,673.7h5.4l-2.7-7.4L698.8,673.7z"/>
	<polygon class="st4" points="720.2,681.6 716.2,681.6 716.2,665 710.3,665 710.3,661.6 726.1,661.6 726.1,665 720.2,665 	"/>
	<rect x="728.6" y="661.6" class="st4" width="4" height="20"/>
	<path class="st4" d="M735.6,671.7c0-2,0.3-3.8,0.9-5.1c0.4-1,1.1-1.9,1.8-2.7c0.8-0.8,1.6-1.4,2.6-1.8c1.2-0.5,2.7-0.8,4.3-0.8
		c2.9,0,5.3,0.9,7,2.8c1.8,1.8,2.6,4.4,2.6,7.6c0,3.2-0.9,5.8-2.6,7.6c-1.7,1.8-4.1,2.7-7,2.7c-3,0-5.3-0.9-7.1-2.7
		C736.5,677.4,735.6,674.9,735.6,671.7z M739.8,671.6c0,2.3,0.5,4,1.6,5.1c1,1.2,2.4,1.7,4,1.7c1.6,0,2.9-0.6,3.9-1.7
		c1-1.2,1.5-2.9,1.5-5.2c0-2.3-0.5-4-1.5-5.1c-1-1.1-2.3-1.7-4-1.7c-1.7,0-3,0.6-4,1.7C740.3,667.6,739.8,669.3,739.8,671.6z"/>
	<polygon class="st4" points="761.8,681.6 758.1,681.6 758.1,661.6 762,661.6 770.1,674.9 770.1,661.6 773.9,661.6 773.9,681.6 
		769.9,681.6 761.8,668.5 	"/>
	<path class="st4" d="M785.9,681.6v-20h8c1.6,0,2.7,0.1,3.5,0.2c0.8,0.1,1.5,0.4,2.1,0.8c0.6,0.4,1.1,1,1.5,1.7
		c0.4,0.7,0.6,1.5,0.6,2.3c0,0.9-0.2,1.8-0.8,2.6c-0.5,0.8-1.2,1.4-2,1.8c1.2,0.3,2.1,1,2.8,1.8c0.7,0.9,1,1.9,1,3
		c0,0.9-0.2,1.8-0.6,2.7c-0.4,0.8-1,1.5-1.7,2.1c-0.7,0.5-1.6,0.8-2.7,0.9c-0.7,0.1-2.3,0.1-4.9,0.1H785.9z M792.2,664.9h-2.3v4.6
		h2.6c1.6,0,2.5,0,2.9-0.1c0.7-0.1,1.2-0.3,1.6-0.7c0.4-0.4,0.6-0.9,0.6-1.6c0-0.6-0.2-1.1-0.5-1.5c-0.3-0.4-0.9-0.6-1.5-0.7
		C795.2,664.9,794.1,664.9,792.2,664.9z M793.1,672.9h-3.2v5.3h3.7c1.5,0,2.4,0,2.8-0.1c0.6-0.1,1.1-0.4,1.5-0.8
		c0.4-0.4,0.6-1,0.6-1.7c0-0.6-0.1-1.1-0.4-1.5c-0.3-0.4-0.7-0.7-1.3-0.9C796.2,673,795,672.9,793.1,672.9z"/>
	<path class="st4" d="M805.1,671.7c0-2,0.3-3.8,0.9-5.1c0.5-1,1.1-1.9,1.9-2.7c0.8-0.8,1.6-1.4,2.6-1.8c1.2-0.5,2.7-0.8,4.3-0.8
		c2.9,0,5.3,0.9,7,2.8c1.8,1.8,2.7,4.4,2.7,7.6c0,3.2-0.9,5.8-2.6,7.6c-1.7,1.8-4.1,2.7-7,2.7c-3,0-5.3-0.9-7.1-2.7
		C806,677.4,805.1,674.9,805.1,671.7z M809.3,671.6c0,2.3,0.5,4,1.6,5.1c1,1.2,2.4,1.7,4,1.7c1.6,0,2.9-0.6,3.9-1.7
		c1-1.2,1.5-2.9,1.5-5.2c0-2.3-0.5-4-1.5-5.1c-1-1.1-2.3-1.7-4-1.7c-1.7,0-3,0.6-4,1.7C809.8,667.6,809.3,669.3,809.3,671.6z"/>
	<path class="st4" d="M827.5,681.6v-20h7.4c1.7,0,2.9,0.1,3.8,0.4c1.2,0.4,2.2,1,3,1.8c0.8,0.9,1.5,2,1.9,3.2
		c0.4,1.3,0.7,2.8,0.7,4.7c0,1.6-0.2,3.1-0.6,4.3c-0.5,1.5-1.2,2.6-2.1,3.5c-0.7,0.7-1.6,1.2-2.8,1.6c-0.9,0.3-2.1,0.4-3.6,0.4
		H827.5z M833.4,665h-1.8v13.2h3c1.1,0,1.9-0.1,2.4-0.2c0.7-0.2,1.2-0.4,1.6-0.8c0.4-0.4,0.8-1,1-1.9c0.3-0.9,0.4-2.1,0.4-3.7
		c0-1.6-0.1-2.7-0.4-3.6c-0.3-0.8-0.7-1.5-1.1-1.9c-0.5-0.5-1.1-0.8-1.9-0.9C836.1,665,835,665,833.4,665z"/>
	<polygon class="st4" points="856.9,681.6 852.9,681.6 852.9,673.2 845.6,661.6 850.3,661.6 855,669.5 859.6,661.6 864.2,661.6 
		856.9,673.2 	"/>
</g>
<g>
	<g>
		
			<linearGradient id="SVGID_1_" gradientUnits="userSpaceOnUse" x1="29.1752" y1="873.4843" x2="30.3474" y2="874.7444" gradientTransform="matrix(0 -42.2827 39.3387 0 -34116.6484 2475.5225)">
			<stop  offset="0" style="stop-color:#FEDD56"/>
			<stop  offset="0.5" style="stop-color:#F15843"/>
			<stop  offset="1" style="stop-color:#BB469A"/>
		</linearGradient>
		<path class="st5" d="M245,1192.5c-4.5,4.6-3.6,9.6-3.6,24.6c0,12.4-2.2,24.9,9.2,27.9c3.5,0.9,35,0.9,38.5,0
			c4.7-1.2,8.6-5.1,9.1-11.7c0.1-0.9,0.1-31.3,0-32.2c-0.6-7.1-4.9-11.2-10.7-12.1c-1.3-0.2-1.6-0.2-8.4-0.3
			C255,1188.7,249.8,1187.6,245,1192.5L245,1192.5z"/>
		<path class="st6" d="M269.9,1196.1c-8.6,0-16.8-0.8-19.9,7.2c-1.3,3.3-1.1,7.6-1.1,13.8c0,5.4-0.2,10.5,1.1,13.8
			c3.1,8,11.4,7.2,19.9,7.2c8.2,0,16.7,0.9,19.9-7.2c1.3-3.3,1.1-7.6,1.1-13.8c0-8.2,0.5-13.5-3.5-17.5
			C283.3,1195.6,277.9,1196.1,269.9,1196.1L269.9,1196.1z M268,1199.9c17.9,0,20.2-2,19,25.7c-0.5,9.8-7.9,8.7-17.1,8.7
			c-16.7,0-17.2-0.5-17.2-17.2C252.7,1200.2,254,1199.9,268,1199.9L268,1199.9z M281.1,1203.4c-1.4,0-2.5,1.1-2.5,2.5
			c0,1.4,1.1,2.5,2.5,2.5c1.4,0,2.5-1.1,2.5-2.5C283.6,1204.5,282.5,1203.4,281.1,1203.4z M269.9,1206.3c-6,0-10.8,4.8-10.8,10.8
			c0,6,4.8,10.8,10.8,10.8c6,0,10.8-4.8,10.8-10.8C280.7,1211.2,275.8,1206.3,269.9,1206.3L269.9,1206.3z M269.9,1210.1
			c9.3,0,9.3,14,0,14C260.6,1224.1,260.6,1210.1,269.9,1210.1z"/>
	</g>
	<g>
		<rect x="253.1" y="1129.8" class="st6" width="38.6" height="50.7"/>
		<g>
			<path class="st7" d="M290.6,1123.4H249c-4.2,0-7.7,3.4-7.7,7.7v41.7c0,4.2,3.4,7.7,7.7,7.7h20.6l0-20.4h-5.3
				c-0.7,0-1.2-0.6-1.2-1.2l0-6.6c0-0.7,0.6-1.3,1.3-1.3h5.3v-6.4c0-7.4,4.5-11.4,11.1-11.4h5.4c0.7,0,1.3,0.6,1.3,1.2v5.5
				c0,0.7-0.6,1.2-1.2,1.2l-3.3,0c-3.6,0-4.3,1.7-4.3,4.2v5.5h7.9c0.7,0,1.3,0.7,1.2,1.4l-0.8,6.6c-0.1,0.6-0.6,1.1-1.2,1.1h-7
				l0,20.4h12.2c4.2,0,7.7-3.4,7.7-7.7v-41.7C298.3,1126.9,294.9,1123.4,290.6,1123.4z"/>
		</g>
	</g>
	<g>
		<rect x="253.1" y="1325.6" class="st6" width="38.6" height="50.7"/>
		<g>
			<path class="st7" d="M290.6,1319.3H249c-4.2,0-7.7,3.4-7.7,7.7v41.7c0,4.2,3.4,7.7,7.7,7.7h20.6l0-20.4h-5.3
				c-0.7,0-1.2-0.6-1.2-1.2l0-6.6c0-0.7,0.6-1.3,1.3-1.3h5.3v-6.4c0-7.4,4.5-11.4,11.1-11.4h5.4c0.7,0,1.3,0.6,1.3,1.2v5.5
				c0,0.7-0.6,1.2-1.2,1.2l-3.3,0c-3.6,0-4.3,1.7-4.3,4.2v5.5h7.9c0.7,0,1.3,0.7,1.2,1.4l-0.8,6.6c-0.1,0.6-0.6,1.1-1.2,1.1h-7
				l0,20.4h12.2c4.2,0,7.7-3.4,7.7-7.7V1327C298.3,1322.7,294.9,1319.3,290.6,1319.3z"/>
		</g>
	</g>
	<g>
		<path class="st8" d="M297.1,1081.7c-0.7-2.4-2.6-4.4-5-5c-4.5-1.2-22.3-1.2-22.3-1.2s-17.9,0-22.3,1.2c-2.4,0.7-4.4,2.6-5,5.1
			c-1.2,4.5-1.2,13.7-1.2,13.7s0,9.3,1.2,13.7c0.7,2.4,2.6,4.4,5,5c4.5,1.2,22.3,1.2,22.3,1.2s17.9,0,22.3-1.2c2.4-0.7,4.4-2.6,5-5
			c1.2-4.5,1.2-13.7,1.2-13.7S298.4,1086.1,297.1,1081.7z"/>
		<path class="st6" d="M264.1,1103.9l14.8-8.6l-14.8-8.6V1103.9z"/>
	</g>
	<g>
		<path class="st9" d="M269.8,1254.1c15.8,0,28.5,12.8,28.5,28.5s-12.8,28.5-28.5,28.5c-15.8,0-28.5-12.8-28.5-28.5
			S254,1254.1,269.8,1254.1z"/>
		<g>
			<path class="st6" d="M268.4,1279.5c2.3-2,5.3-3,8.5-3c0.4,0,0.7,0,1.1,0c-1.2-5.2-6.6-9.2-13.1-9.2c-7.4,0-13.4,5.1-13.4,11.4
				c0,3.3,1.6,6.3,4.3,8.4l-1.1,4.9l4.8-2.8c1.7,0.6,3.5,1,5.4,1c0.2,0,0.3,0,0.5,0c-0.4-1-0.6-2.1-0.6-3.2
				C264.8,1284.1,266.1,1281.5,268.4,1279.5z M269.6,1272.6c0.9,0,1.7,0.8,1.7,1.7s-0.8,1.7-1.7,1.7c-0.9,0-1.7-0.8-1.7-1.7
				S268.7,1272.6,269.6,1272.6z M259.9,1276.1c-0.9,0-1.7-0.8-1.7-1.7s0.8-1.7,1.7-1.7s1.7,0.8,1.7,1.7S260.8,1276.1,259.9,1276.1z"
				/>
			<path class="st6" d="M276.9,1277.4c-6.2,0-11.2,4.3-11.2,9.6s5,9.6,11.2,9.6c1.6,0,3.1-0.3,4.5-0.8l4,2.3l-0.9-4.1
				c2.2-1.7,3.6-4.2,3.6-7C288.1,1281.7,283.1,1277.4,276.9,1277.4z M273,1281.9c0.8,0,1.4,0.6,1.4,1.4s-0.6,1.4-1.4,1.4
				c-0.8,0-1.4-0.6-1.4-1.4S272.2,1281.9,273,1281.9z M281.1,1284.7c-0.8,0-1.4-0.6-1.4-1.4s0.6-1.4,1.4-1.4c0.8,0,1.4,0.6,1.4,1.4
				S281.9,1284.7,281.1,1284.7z"/>
		</g>
	</g>
	<g>
		<path d="M324.7,1081h3l7.2,19.9h-3l-2.1-6h-7.8l-2.2,6h-2.8L324.7,1081z M329.2,1092.7l-3.1-8.8l-3.2,8.8H329.2z"/>
		<path d="M337.5,1081h8c2.7,0,4.8,1,6.3,2.9c1.3,1.8,2,4,2,6.7c0,2.1-0.4,4-1.2,5.7c-1.4,3-3.8,4.5-7.1,4.5h-7.9V1081z
			 M344.9,1098.6c0.9,0,1.6-0.1,2.2-0.3c1-0.4,1.9-1,2.5-2c0.5-0.8,0.9-1.8,1.1-3.1c0.1-0.8,0.2-1.4,0.2-2.1c0-2.5-0.5-4.4-1.4-5.8
			c-1-1.4-2.5-2-4.6-2h-4.7v15.3H344.9z"/>
		<path d="M358,1087.1v-1.9c1.8-0.2,3-0.5,3.7-0.9s1.2-1.4,1.6-2.9h1.9v19.3h-2.6v-13.8H358z"/>
		<path d="M382.7,1095c0,1.7-0.2,3-0.7,3.9c-0.9,1.7-2.7,2.6-5.3,2.6c-1.5,0-2.8-0.4-3.8-1.2c-1.1-0.8-1.6-2.2-1.6-4.3v-1.4h2.5v1.4
			c0,1.1,0.2,1.9,0.7,2.4c0.5,0.5,1.2,0.8,2.3,0.8c1.4,0,2.4-0.5,2.8-1.5c0.3-0.6,0.4-1.8,0.4-3.4V1081h2.7V1095z"/>
		<path d="M388.1,1081l3.8,16.2l4.5-16.2h2.9l4.5,16.2l3.8-16.2h3l-5.2,19.9h-2.8l-4.6-16.5l-4.6,16.5h-2.8l-5.2-19.9H388.1z"/>
		<path d="M324.7,1144.3h3l7.2,19.9h-3l-2.1-6h-7.8l-2.2,6h-2.8L324.7,1144.3z M329.2,1156.1l-3.1-8.8l-3.2,8.8H329.2z"/>
		<path d="M337.5,1144.3h8c2.7,0,4.8,1,6.3,2.9c1.3,1.8,2,4,2,6.7c0,2.1-0.4,4-1.2,5.7c-1.4,3-3.8,4.5-7.1,4.5h-7.9V1144.3z
			 M344.9,1161.9c0.9,0,1.6-0.1,2.2-0.3c1-0.4,1.9-1,2.5-2c0.5-0.8,0.9-1.8,1.1-3.1c0.1-0.8,0.2-1.4,0.2-2.1c0-2.5-0.5-4.4-1.4-5.8
			c-1-1.4-2.5-2-4.6-2h-4.7v15.3H344.9z"/>
		<path d="M358,1150.5v-1.9c1.8-0.2,3-0.5,3.7-0.9s1.2-1.4,1.6-2.9h1.9v19.3h-2.6v-13.8H358z"/>
		<path d="M380.9,1144.3h8.9c1.8,0,3.2,0.5,4.3,1.5c1.1,1,1.6,2.4,1.6,4.2c0,1.6-0.5,2.9-1.5,4.1c-1,1.2-2.4,1.7-4.4,1.7h-6.2v8.4
			h-2.7V1144.3z M391.4,1147.1c-0.6-0.3-1.4-0.4-2.4-0.4h-5.3v6.9h5.3c1.2,0,2.2-0.3,2.9-0.8c0.8-0.5,1.1-1.4,1.1-2.7
			C393,1148.6,392.4,1147.6,391.4,1147.1z"/>
		<path d="M398.9,1149.7h2.3v2.5c0.2-0.5,0.7-1.1,1.4-1.8c0.7-0.7,1.6-1.1,2.6-1.1c0,0,0.1,0,0.2,0c0.1,0,0.3,0,0.6,0.1v2.6
			c-0.1,0-0.3,0-0.4-0.1c-0.1,0-0.3,0-0.4,0c-1.2,0-2.2,0.4-2.8,1.2c-0.7,0.8-1,1.7-1,2.7v8.4h-2.4V1149.7z"/>
		<path d="M408.1,1144.3h2.5v2.8h-2.5V1144.3z M408.1,1149.8h2.5v14.5h-2.5V1149.8z"/>
		<path d="M414.3,1149.7h2.3v2.1c0.7-0.8,1.4-1.5,2.2-1.8c0.8-0.4,1.6-0.6,2.6-0.6c2.1,0,3.5,0.7,4.2,2.2c0.4,0.8,0.6,1.9,0.6,3.4
			v9.3h-2.5v-9.2c0-0.9-0.1-1.6-0.4-2.1c-0.4-0.9-1.2-1.4-2.4-1.4c-0.6,0-1.1,0.1-1.4,0.2c-0.7,0.2-1.3,0.6-1.8,1.2
			c-0.4,0.5-0.7,1-0.8,1.5c-0.1,0.5-0.2,1.2-0.2,2.2v7.6h-2.4V1149.7z"/>
		<path d="M430.2,1145.7h2.5v4.1h2.3v2h-2.3v9.5c0,0.5,0.2,0.8,0.5,1c0.2,0.1,0.5,0.1,0.9,0.1c0.1,0,0.2,0,0.4,0c0.1,0,0.3,0,0.5,0
			v1.9c-0.3,0.1-0.6,0.1-0.9,0.2c-0.3,0-0.6,0.1-1,0.1c-1.1,0-1.9-0.3-2.3-0.9c-0.4-0.6-0.6-1.3-0.6-2.3v-9.6h-2v-2h2V1145.7z"/>
		<path d="M445.6,1144.3h8c2.7,0,4.8,1,6.3,2.9c1.3,1.8,2,4,2,6.7c0,2.1-0.4,4-1.2,5.7c-1.4,3-3.8,4.5-7.1,4.5h-7.9V1144.3z
			 M453,1161.9c0.9,0,1.6-0.1,2.2-0.3c1-0.4,1.9-1,2.5-2c0.5-0.8,0.9-1.8,1.1-3.1c0.1-0.8,0.2-1.4,0.2-2.1c0-2.5-0.5-4.4-1.4-5.8
			c-1-1.4-2.5-2-4.6-2h-4.7v15.3H453z"/>
		<path d="M474.2,1150.1c1,0.5,1.7,1.1,2.2,1.9c0.5,0.7,0.8,1.6,1,2.6c0.1,0.7,0.2,1.7,0.2,3.2H467c0,1.5,0.4,2.7,1,3.6
			c0.6,0.9,1.6,1.3,3,1.3c1.3,0,2.3-0.4,3-1.3c0.4-0.5,0.7-1.1,0.9-1.7h2.4c-0.1,0.5-0.3,1.1-0.6,1.8c-0.4,0.7-0.8,1.2-1.2,1.6
			c-0.7,0.7-1.6,1.2-2.7,1.5c-0.6,0.1-1.2,0.2-2,0.2c-1.8,0-3.3-0.7-4.6-2c-1.2-1.3-1.9-3.2-1.9-5.5c0-2.3,0.6-4.2,1.9-5.7
			c1.3-1.5,2.9-2.2,4.9-2.2C472.2,1149.4,473.2,1149.6,474.2,1150.1z M475.1,1155.8c-0.1-1.1-0.3-1.9-0.7-2.5
			c-0.7-1.2-1.8-1.8-3.3-1.8c-1.1,0-2,0.4-2.8,1.2c-0.8,0.8-1.2,1.8-1.2,3.1H475.1z"/>
		<path d="M482.1,1159.7c0.1,0.8,0.3,1.4,0.6,1.9c0.6,0.8,1.7,1.2,3.3,1.2c0.9,0,1.7-0.2,2.4-0.6c0.7-0.4,1.1-1,1.1-1.8
			c0-0.6-0.3-1.1-0.8-1.4c-0.4-0.2-1.1-0.4-2.1-0.7l-2-0.5c-1.3-0.3-2.2-0.7-2.8-1c-1.1-0.7-1.6-1.6-1.6-2.7c0-1.4,0.5-2.5,1.5-3.3
			c1-0.8,2.4-1.3,4-1.3c2.2,0,3.8,0.6,4.8,1.9c0.6,0.8,0.9,1.7,0.9,2.6h-2.3c0-0.5-0.2-1-0.6-1.5c-0.6-0.6-1.6-1-3-1
			c-0.9,0-1.7,0.2-2.1,0.5c-0.5,0.4-0.7,0.8-0.7,1.4c0,0.6,0.3,1.1,1,1.5c0.4,0.2,0.9,0.4,1.6,0.6l1.6,0.4c1.8,0.4,3,0.8,3.6,1.2
			c0.9,0.6,1.4,1.6,1.4,2.9c0,1.3-0.5,2.4-1.5,3.3c-1,0.9-2.5,1.4-4.5,1.4c-2.2,0-3.7-0.5-4.6-1.5c-0.9-1-1.4-2.2-1.5-3.6H482.1z"/>
		<path d="M494.5,1144.3h2.5v2.8h-2.5V1144.3z M494.5,1149.8h2.5v14.5h-2.5V1149.8z"/>
		<path d="M508.8,1150.3c0.5,0.3,0.9,0.8,1.4,1.4v-1.8h2.3v13.2c0,1.8-0.3,3.3-0.8,4.4c-1,2-2.9,3-5.7,3c-1.6,0-2.9-0.3-3.9-1.1
			c-1.1-0.7-1.7-1.8-1.8-3.3h2.5c0.1,0.7,0.4,1.2,0.7,1.5c0.5,0.5,1.4,0.8,2.6,0.8c1.9,0,3.1-0.7,3.7-2c0.3-0.8,0.5-2.2,0.5-4.2
			c-0.5,0.7-1.1,1.3-1.8,1.7c-0.7,0.4-1.6,0.5-2.7,0.5c-1.6,0-2.9-0.6-4.1-1.7c-1.2-1.1-1.8-3-1.8-5.5c0-2.4,0.6-4.3,1.8-5.7
			c1.2-1.4,2.6-2,4.3-2C507,1149.5,508,1149.7,508.8,1150.3z M509.1,1152.9c-0.7-0.9-1.7-1.3-2.8-1.3c-1.7,0-2.9,0.8-3.5,2.4
			c-0.3,0.9-0.5,2-0.5,3.4c0,1.6,0.3,2.9,1,3.7c0.7,0.9,1.5,1.3,2.7,1.3c1.7,0,3-0.8,3.7-2.4c0.4-0.9,0.6-1.9,0.6-3.1
			C510.2,1155.1,509.8,1153.8,509.1,1152.9z"/>
		<path d="M516.2,1149.7h2.3v2.1c0.7-0.8,1.4-1.5,2.2-1.8c0.8-0.4,1.6-0.6,2.6-0.6c2.1,0,3.5,0.7,4.2,2.2c0.4,0.8,0.6,1.9,0.6,3.4
			v9.3h-2.5v-9.2c0-0.9-0.1-1.6-0.4-2.1c-0.4-0.9-1.2-1.4-2.4-1.4c-0.6,0-1.1,0.1-1.4,0.2c-0.7,0.2-1.3,0.6-1.8,1.2
			c-0.4,0.5-0.7,1-0.8,1.5c-0.1,0.5-0.2,1.2-0.2,2.2v7.6h-2.4V1149.7z"/>
		<path d="M545.8,1144c-1.4,2.8-2.3,4.8-2.8,6.1c-0.6,2-1,4.3-1,6.9c0,2.6,0.4,5,1.1,7.2c0.5,1.3,1.3,3.3,2.7,5.8h-1.6
			c-1.3-2.1-2.1-3.4-2.5-3.9c-0.3-0.6-0.7-1.3-1-2.3c-0.5-1.3-0.9-2.8-1.1-4.3c-0.1-0.8-0.1-1.5-0.1-2.3c0-2.7,0.4-5.1,1.3-7.1
			c0.5-1.3,1.6-3.3,3.3-6H545.8z"/>
		<path d="M549.2,1144.3h8.9c1.8,0,3.2,0.5,4.3,1.5c1.1,1,1.6,2.4,1.6,4.2c0,1.6-0.5,2.9-1.5,4.1c-1,1.2-2.4,1.7-4.4,1.7h-6.2v8.4
			h-2.7V1144.3z M559.6,1147.1c-0.6-0.3-1.4-0.4-2.4-0.4h-5.3v6.9h5.3c1.2,0,2.2-0.3,2.9-0.8c0.8-0.5,1.1-1.4,1.1-2.7
			C561.3,1148.6,560.7,1147.6,559.6,1147.1z"/>
		<path d="M567.2,1149.7h2.3v2.5c0.2-0.5,0.7-1.1,1.4-1.8c0.7-0.7,1.6-1.1,2.6-1.1c0,0,0.1,0,0.2,0c0.1,0,0.3,0,0.6,0.1v2.6
			c-0.1,0-0.3,0-0.4-0.1c-0.1,0-0.3,0-0.4,0c-1.2,0-2.2,0.4-2.8,1.2c-0.7,0.8-1,1.7-1,2.7v8.4h-2.4V1149.7z"/>
		<path d="M576.4,1144.3h2.5v2.8h-2.5V1144.3z M576.4,1149.8h2.5v14.5h-2.5V1149.8z"/>
		<path d="M582.5,1149.7h2.3v2.1c0.7-0.8,1.4-1.5,2.2-1.8c0.8-0.4,1.6-0.6,2.6-0.6c2.1,0,3.5,0.7,4.2,2.2c0.4,0.8,0.6,1.9,0.6,3.4
			v9.3h-2.5v-9.2c0-0.9-0.1-1.6-0.4-2.1c-0.4-0.9-1.2-1.4-2.4-1.4c-0.6,0-1.1,0.1-1.4,0.2c-0.7,0.2-1.3,0.6-1.8,1.2
			c-0.4,0.5-0.7,1-0.8,1.5c-0.1,0.5-0.2,1.2-0.2,2.2v7.6h-2.4V1149.7z"/>
		<path d="M598.5,1145.7h2.5v4.1h2.3v2H601v9.5c0,0.5,0.2,0.8,0.5,1c0.2,0.1,0.5,0.1,0.9,0.1c0.1,0,0.2,0,0.4,0c0.1,0,0.3,0,0.5,0
			v1.9c-0.3,0.1-0.6,0.1-0.9,0.2c-0.3,0-0.6,0.1-1,0.1c-1.1,0-1.9-0.3-2.3-0.9c-0.4-0.6-0.6-1.3-0.6-2.3v-9.6h-2v-2h2V1145.7z"/>
		<path d="M605.7,1144.3h2.5v2.8h-2.5V1144.3z M605.7,1149.8h2.5v14.5h-2.5V1149.8z"/>
		<path d="M611.9,1149.7h2.3v2.1c0.7-0.8,1.4-1.5,2.2-1.8c0.8-0.4,1.6-0.6,2.6-0.6c2.1,0,3.5,0.7,4.2,2.2c0.4,0.8,0.6,1.9,0.6,3.4
			v9.3h-2.5v-9.2c0-0.9-0.1-1.6-0.4-2.1c-0.4-0.9-1.2-1.4-2.4-1.4c-0.6,0-1.1,0.1-1.4,0.2c-0.7,0.2-1.3,0.6-1.8,1.2
			c-0.4,0.5-0.7,1-0.8,1.5c-0.1,0.5-0.2,1.2-0.2,2.2v7.6h-2.4V1149.7z"/>
		<path d="M635.4,1150.3c0.5,0.3,0.9,0.8,1.4,1.4v-1.8h2.3v13.2c0,1.8-0.3,3.3-0.8,4.4c-1,2-2.9,3-5.7,3c-1.6,0-2.9-0.3-3.9-1.1
			c-1.1-0.7-1.7-1.8-1.8-3.3h2.5c0.1,0.7,0.4,1.2,0.7,1.5c0.5,0.5,1.4,0.8,2.6,0.8c1.9,0,3.1-0.7,3.7-2c0.3-0.8,0.5-2.2,0.5-4.2
			c-0.5,0.7-1.1,1.3-1.8,1.7c-0.7,0.4-1.6,0.5-2.7,0.5c-1.6,0-2.9-0.6-4.1-1.7c-1.2-1.1-1.8-3-1.8-5.5c0-2.4,0.6-4.3,1.8-5.7
			c1.2-1.4,2.6-2,4.3-2C633.6,1149.5,634.6,1149.7,635.4,1150.3z M635.7,1152.9c-0.7-0.9-1.7-1.3-2.8-1.3c-1.7,0-2.9,0.8-3.5,2.4
			c-0.3,0.9-0.5,2-0.5,3.4c0,1.6,0.3,2.9,1,3.7c0.7,0.9,1.5,1.3,2.7,1.3c1.7,0,3-0.8,3.7-2.4c0.4-0.9,0.6-1.9,0.6-3.1
			C636.8,1155.1,636.5,1153.8,635.7,1152.9z"/>
		<path d="M650.8,1144.3h3.9l5.7,16.8l5.7-16.8h3.8v19.9h-2.6v-11.8c0-0.4,0-1.1,0-2c0-0.9,0-1.9,0-3l-5.7,16.8H659l-5.7-16.8v0.6
			c0,0.5,0,1.2,0,2.2c0,1,0,1.7,0,2.2v11.8h-2.6V1144.3z"/>
		<path d="M672.4,1144.3h3.1l5.7,9.6l5.7-9.6h3.2l-7.5,11.9v8H680v-8L672.4,1144.3z"/>
		<path d="M694.4,1150.7c-0.3-0.7-0.4-1.3-0.4-1.9c0-1.3,0.4-2.3,1.3-3.2c0.9-0.8,2-1.3,3.5-1.3c1.4,0,2.5,0.4,3.2,1.2
			c0.8,0.8,1.2,1.7,1.2,2.8c0,1.3-0.4,2.4-1.2,3.3c-0.5,0.6-1.3,1.2-2.3,1.9l3.6,4.3c0.2-0.7,0.4-1.3,0.5-1.6
			c0.1-0.4,0.2-0.9,0.3-1.5h2.3c-0.2,1.3-0.5,2.5-0.9,3.7c-0.5,1.2-0.7,1.6-0.7,1.4l3.5,4.3h-3.1l-1.9-2.3c-0.7,0.8-1.4,1.4-2,1.8
			c-1.1,0.7-2.3,1-3.7,1c-2.1,0-3.6-0.6-4.5-1.7c-0.9-1.1-1.4-2.4-1.4-3.8c0-1.5,0.5-2.8,1.4-3.8c0.6-0.6,1.6-1.4,3.1-2.3
			C695.3,1152.2,694.7,1151.4,694.4,1150.7z M700.3,1161.9c0.7-0.5,1.3-1,1.7-1.5l-4.5-5.5c-1.3,0.9-2.1,1.5-2.5,2
			c-0.6,0.7-0.9,1.5-0.9,2.5c0,1.1,0.4,1.9,1.2,2.4c0.8,0.6,1.6,0.9,2.5,0.9C698.7,1162.6,699.5,1162.3,700.3,1161.9z M700.1,1150.6
			c0.5-0.6,0.8-1.3,0.8-2c0-0.6-0.2-1.1-0.6-1.5c-0.4-0.4-0.9-0.6-1.6-0.6c-1,0-1.7,0.3-2.1,1c-0.2,0.3-0.3,0.7-0.3,1.1
			c0,0.6,0.2,1.1,0.5,1.6c0.3,0.5,0.8,1.2,1.5,2C699.2,1151.4,699.8,1150.9,700.1,1150.6z"/>
		<path d="M712.8,1157.8c0.1,1.1,0.3,2,0.8,2.8c0.9,1.3,2.4,2,4.6,2c1,0,1.9-0.1,2.7-0.4c1.6-0.6,2.3-1.6,2.3-3c0-1.1-0.3-1.9-1-2.3
			c-0.7-0.5-1.7-0.8-3.1-1.2l-2.6-0.6c-1.7-0.4-2.9-0.8-3.6-1.3c-1.2-0.8-1.8-2.1-1.8-3.7c0-1.8,0.6-3.3,1.8-4.4
			c1.2-1.1,2.9-1.7,5.1-1.7c2,0,3.8,0.5,5.2,1.5c1.4,1,2.1,2.6,2.1,4.8h-2.5c-0.1-1.1-0.4-1.9-0.8-2.5c-0.8-1-2.1-1.6-4-1.6
			c-1.5,0-2.6,0.3-3.3,1c-0.7,0.7-1,1.4-1,2.3c0,1,0.4,1.7,1.2,2.1c0.5,0.3,1.7,0.7,3.5,1.1l2.7,0.6c1.3,0.3,2.3,0.7,3,1.3
			c1.2,0.9,1.8,2.3,1.8,4.1c0,2.2-0.8,3.8-2.3,4.7c-1.6,0.9-3.4,1.4-5.5,1.4c-2.4,0-4.3-0.6-5.7-1.9c-1.4-1.3-2-3-2-5.1H712.8z"/>
		<path d="M742.8,1144.9c2,1,3.1,2.9,3.6,5.5h-2.7c-0.3-1.5-1-2.5-2-3.2c-1-0.7-2.3-1-3.8-1c-1.8,0-3.3,0.7-4.6,2.1
			c-1.2,1.4-1.9,3.4-1.9,6.2c0,2.4,0.5,4.3,1.5,5.8c1,1.5,2.7,2.2,5,2.2c1.8,0,3.2-0.5,4.4-1.6c1.2-1,1.7-2.7,1.8-5.1H738v-2.2h8.7
			v10.7H745l-0.7-2.6c-0.9,1-1.7,1.7-2.4,2.1c-1.2,0.7-2.6,1-4.4,1c-2.3,0-4.3-0.8-6-2.3c-1.8-1.9-2.7-4.5-2.7-7.9
			c0-3.3,0.9-6,2.7-8c1.7-1.9,3.9-2.8,6.6-2.8C739.9,1143.8,741.5,1144.2,742.8,1144.9z"/>
		<path d="M750,1169.9c1.4-2.8,2.4-4.8,2.8-6.1c0.6-1.9,0.9-4.2,0.9-6.8s-0.4-5-1.1-7.2c-0.5-1.3-1.3-3.3-2.7-5.8h1.6
			c1.4,2.2,2.2,3.6,2.5,4.1c0.3,0.5,0.6,1.2,1,2.2c0.4,1.1,0.7,2.2,0.9,3.3c0.2,1.1,0.3,2.2,0.3,3.2c0,2.7-0.4,5.1-1.3,7.2
			c-0.5,1.3-1.6,3.3-3.3,6H750z"/>
		<path d="M326.3,1218.8c0.6-0.1,0.9-0.3,1.1-0.7c0.1-0.2,0.2-0.5,0.2-0.9c0-0.8-0.3-1.4-0.9-1.8c-0.6-0.4-1.4-0.6-2.5-0.6
			c-1.3,0-2.2,0.3-2.7,1c-0.3,0.4-0.5,1-0.6,1.7h-2.3c0-1.8,0.6-3,1.7-3.7c1.1-0.7,2.4-1.1,3.9-1.1c1.7,0,3.1,0.3,4.2,1
			c1.1,0.7,1.6,1.7,1.6,3v8.4c0,0.3,0.1,0.5,0.2,0.6c0.1,0.2,0.3,0.2,0.7,0.2c0.1,0,0.2,0,0.4,0c0.1,0,0.3,0,0.4-0.1v1.8
			c-0.4,0.1-0.7,0.2-0.9,0.2c-0.2,0-0.5,0-0.8,0c-0.8,0-1.5-0.3-1.8-0.9c-0.2-0.3-0.3-0.8-0.4-1.3c-0.5,0.7-1.2,1.2-2.1,1.7
			c-0.9,0.5-2,0.7-3.1,0.7c-1.3,0-2.4-0.4-3.3-1.2c-0.9-0.8-1.3-1.8-1.3-3.1c0-1.3,0.4-2.4,1.3-3.1c0.8-0.7,1.9-1.2,3.3-1.4
			L326.3,1218.8z M321.2,1225.4c0.5,0.4,1.1,0.6,1.8,0.6c0.9,0,1.7-0.2,2.5-0.6c1.4-0.7,2-1.7,2-3.2v-2c-0.3,0.2-0.7,0.3-1.2,0.5
			c-0.5,0.1-0.9,0.2-1.4,0.3l-1.5,0.2c-0.9,0.1-1.5,0.3-2,0.6c-0.8,0.4-1.1,1.1-1.1,2C320.4,1224.4,320.7,1225,321.2,1225.4z"/>
		<path d="M342,1213.5c0.4,0.3,0.9,0.7,1.5,1.4v-7.3h2.3v20h-2.2v-2c-0.6,0.9-1.2,1.5-2,1.9c-0.8,0.4-1.7,0.6-2.7,0.6
			c-1.6,0-3-0.7-4.2-2c-1.2-1.4-1.8-3.2-1.8-5.4c0-2.1,0.5-3.9,1.6-5.5c1.1-1.6,2.6-2.3,4.6-2.3C340.3,1212.8,341.2,1213,342,1213.5
			z M336.5,1224.4c0.7,1,1.7,1.6,3.2,1.6c1.1,0,2-0.5,2.8-1.5c0.7-1,1.1-2.4,1.1-4.2c0-1.8-0.4-3.2-1.1-4.1
			c-0.7-0.9-1.7-1.3-2.8-1.3c-1.2,0-2.2,0.5-3,1.4c-0.8,0.9-1.1,2.3-1.1,4.2C335.5,1222,335.9,1223.3,336.5,1224.4z"/>
		<path d="M350.3,1213.8v-1.9c1.8-0.2,3-0.5,3.7-0.9c0.7-0.4,1.2-1.4,1.6-2.9h1.9v19.3h-2.6v-13.8H350.3z"/>
		<path d="M363.1,1231.1v-1.4h15.5v1.4H363.1z"/>
		<path d="M378,1231.3c1.1,0,1.8-0.1,2-0.3c0.2-0.2,0.3-0.7,0.3-1.5v-16.4h2.4v16.6c0,1.1-0.2,1.8-0.5,2.4c-0.6,0.9-1.7,1.3-3.2,1.3
			c-0.1,0-0.2,0-0.4,0c-0.1,0-0.3,0-0.6-0.1V1231.3z M382.8,1210.5h-2.4v-2.8h2.4V1210.5z"/>
		<path d="M386.5,1207.7h2.5v2.8h-2.5V1207.7z M386.5,1213.1h2.5v14.5h-2.5V1213.1z"/>
		<path d="M400.5,1218.8c0.6-0.1,0.9-0.3,1.1-0.7c0.1-0.2,0.2-0.5,0.2-0.9c0-0.8-0.3-1.4-0.9-1.8c-0.6-0.4-1.4-0.6-2.5-0.6
			c-1.3,0-2.2,0.3-2.7,1c-0.3,0.4-0.5,1-0.6,1.7h-2.3c0-1.8,0.6-3,1.7-3.7c1.1-0.7,2.4-1.1,3.9-1.1c1.7,0,3.1,0.3,4.2,1
			c1.1,0.7,1.6,1.7,1.6,3v8.4c0,0.3,0.1,0.5,0.2,0.6c0.1,0.2,0.3,0.2,0.7,0.2c0.1,0,0.2,0,0.4,0c0.1,0,0.3,0,0.4-0.1v1.8
			c-0.4,0.1-0.7,0.2-0.9,0.2c-0.2,0-0.5,0-0.8,0c-0.8,0-1.5-0.3-1.8-0.9c-0.2-0.3-0.3-0.8-0.4-1.3c-0.5,0.7-1.2,1.2-2.1,1.7
			c-0.9,0.5-2,0.7-3.1,0.7c-1.3,0-2.4-0.4-3.3-1.2c-0.9-0.8-1.3-1.8-1.3-3.1c0-1.3,0.4-2.4,1.3-3.1c0.8-0.7,1.9-1.2,3.3-1.4
			L400.5,1218.8z M395.3,1225.4c0.5,0.4,1.1,0.6,1.8,0.6c0.9,0,1.7-0.2,2.5-0.6c1.4-0.7,2-1.7,2-3.2v-2c-0.3,0.2-0.7,0.3-1.2,0.5
			c-0.5,0.1-0.9,0.2-1.4,0.3l-1.5,0.2c-0.9,0.1-1.5,0.3-2,0.6c-0.8,0.4-1.1,1.1-1.1,2C394.6,1224.4,394.8,1225,395.3,1225.4z"/>
		<path d="M409.3,1213l2.8,11.5l2.8-11.5h2.7l2.8,11.4l3-11.4h2.4l-4.2,14.5h-2.5l-3-11.2l-2.9,11.2h-2.5l-4.2-14.5H409.3z"/>
		<path d="M437.2,1213.4c1,0.5,1.7,1.1,2.2,1.9c0.5,0.7,0.8,1.6,1,2.6c0.1,0.7,0.2,1.7,0.2,3.2H430c0,1.5,0.4,2.7,1,3.6
			c0.6,0.9,1.6,1.3,3,1.3c1.3,0,2.3-0.4,3-1.3c0.4-0.5,0.7-1.1,0.9-1.7h2.4c-0.1,0.5-0.3,1.1-0.6,1.8c-0.4,0.7-0.8,1.2-1.2,1.6
			c-0.7,0.7-1.6,1.2-2.7,1.5c-0.6,0.1-1.2,0.2-2,0.2c-1.8,0-3.3-0.7-4.6-2c-1.2-1.3-1.9-3.2-1.9-5.5c0-2.3,0.6-4.2,1.9-5.7
			c1.3-1.5,2.9-2.2,4.9-2.2C435.2,1212.7,436.2,1213,437.2,1213.4z M438,1219.2c-0.1-1.1-0.3-1.9-0.7-2.5c-0.7-1.2-1.8-1.8-3.3-1.8
			c-1.1,0-2,0.4-2.8,1.2c-0.8,0.8-1.2,1.8-1.2,3.1H438z"/>
		<path d="M443.6,1207.7h2.5v2.8h-2.5V1207.7z M443.6,1213.1h2.5v14.5h-2.5V1213.1z"/>
		<path d="M316.2,1294.6c1.1,0,1.8-0.1,2-0.3c0.2-0.2,0.3-0.7,0.3-1.5v-16.4h2.4v16.6c0,1.1-0.2,1.8-0.5,2.4
			c-0.6,0.9-1.7,1.3-3.2,1.3c-0.1,0-0.2,0-0.4,0c-0.1,0-0.3,0-0.6-0.1V1294.6z M321,1273.8h-2.4v-2.8h2.4V1273.8z"/>
		<path d="M324.7,1271h2.5v2.8h-2.5V1271z M324.7,1276.5h2.5v14.5h-2.5V1276.5z"/>
		<path d="M338.7,1282.1c0.6-0.1,0.9-0.3,1.1-0.7c0.1-0.2,0.2-0.5,0.2-0.9c0-0.8-0.3-1.4-0.9-1.8c-0.6-0.4-1.4-0.6-2.5-0.6
			c-1.3,0-2.2,0.3-2.7,1c-0.3,0.4-0.5,0.9-0.6,1.7H331c0-1.8,0.6-3,1.7-3.7s2.4-1.1,3.9-1.1c1.7,0,3.1,0.3,4.2,1
			c1.1,0.7,1.6,1.7,1.6,3v8.4c0,0.3,0.1,0.5,0.2,0.6c0.1,0.2,0.3,0.2,0.7,0.2c0.1,0,0.2,0,0.4,0c0.1,0,0.3,0,0.4-0.1v1.8
			c-0.4,0.1-0.7,0.2-0.9,0.2c-0.2,0-0.5,0-0.8,0c-0.8,0-1.5-0.3-1.8-0.9c-0.2-0.3-0.3-0.8-0.4-1.3c-0.5,0.7-1.2,1.2-2.1,1.7
			c-0.9,0.5-2,0.7-3.1,0.7c-1.3,0-2.4-0.4-3.3-1.2c-0.9-0.8-1.3-1.8-1.3-3.1c0-1.3,0.4-2.4,1.3-3.1c0.8-0.7,1.9-1.2,3.3-1.4
			L338.7,1282.1z M333.5,1288.7c0.5,0.4,1.1,0.6,1.8,0.6c0.9,0,1.7-0.2,2.5-0.6c1.4-0.7,2-1.7,2-3.2v-2c-0.3,0.2-0.7,0.3-1.2,0.5
			c-0.5,0.1-0.9,0.2-1.4,0.3l-1.5,0.2c-0.9,0.1-1.5,0.3-2,0.6c-0.8,0.4-1.1,1.1-1.1,2C332.8,1287.8,333,1288.3,333.5,1288.7z"/>
		<path d="M347.5,1276.4l2.8,11.4l2.8-11.4h2.7l2.8,11.4l3-11.4h2.4l-4.2,14.5h-2.5l-3-11.2l-2.9,11.2H349l-4.2-14.5H347.5z"/>
		<path d="M375.4,1276.8c1,0.5,1.7,1.1,2.2,1.9c0.5,0.7,0.8,1.6,1,2.6c0.1,0.7,0.2,1.7,0.2,3.2h-10.6c0,1.5,0.4,2.7,1,3.6
			c0.6,0.9,1.6,1.3,3,1.3c1.3,0,2.3-0.4,3-1.3c0.4-0.5,0.7-1.1,0.9-1.7h2.4c-0.1,0.5-0.3,1.1-0.6,1.8c-0.4,0.7-0.8,1.2-1.2,1.6
			c-0.7,0.7-1.6,1.2-2.7,1.5c-0.6,0.1-1.2,0.2-2,0.2c-1.8,0-3.3-0.7-4.6-2c-1.2-1.3-1.9-3.2-1.9-5.5c0-2.3,0.6-4.2,1.9-5.7
			c1.3-1.5,2.9-2.2,4.9-2.2C373.4,1276.1,374.4,1276.3,375.4,1276.8z M376.2,1282.5c-0.1-1.1-0.3-1.9-0.7-2.5
			c-0.7-1.2-1.8-1.8-3.3-1.8c-1.1,0-2,0.4-2.8,1.2c-0.8,0.8-1.2,1.8-1.2,3.1H376.2z"/>
		<path d="M381.8,1271h2.5v2.8h-2.5V1271z M381.8,1276.5h2.5v14.5h-2.5V1276.5z"/>
		<path d="M388.4,1289.6c-1-1.3-1.6-2.8-1.6-4.6h2.5c0.1,1.3,0.3,2.2,0.7,2.7c0.6,1,1.8,1.5,3.4,1.5c1.3,0,2.3-0.3,3.1-1
			c0.8-0.7,1.2-1.6,1.2-2.7c0-1.3-0.4-2.3-1.2-2.8c-0.8-0.5-2-0.8-3.4-0.8c-0.2,0-0.3,0-0.5,0c-0.2,0-0.3,0-0.5,0v-2.2
			c0.3,0,0.5,0,0.6,0.1c0.2,0,0.4,0,0.6,0c0.9,0,1.7-0.1,2.3-0.4c1-0.5,1.5-1.4,1.5-2.7c0-1-0.3-1.7-1-2.2c-0.7-0.5-1.5-0.8-2.4-0.8
			c-1.6,0-2.8,0.5-3.4,1.6c-0.3,0.6-0.5,1.4-0.6,2.6h-2.4c0-1.4,0.3-2.7,0.9-3.7c1-1.8,2.7-2.7,5.2-2.7c2,0,3.5,0.4,4.6,1.3
			c1.1,0.9,1.6,2.2,1.6,3.8c0,1.2-0.3,2.2-1,2.9c-0.4,0.5-0.9,0.8-1.5,1.1c1,0.3,1.8,0.8,2.4,1.6c0.6,0.8,0.9,1.8,0.9,2.9
			c0,1.9-0.6,3.4-1.8,4.5c-1.2,1.2-3,1.8-5.2,1.8C391.1,1291.4,389.5,1290.8,388.4,1289.6z"/>
		<path d="M404.3,1279.5c-0.7-0.7-1.1-1.7-1.1-2.8c0-1.4,0.5-2.7,1.6-3.7c1-1,2.5-1.6,4.5-1.6c1.9,0,3.3,0.5,4.4,1.5
			c1.1,1,1.6,2.1,1.6,3.4c0,1.2-0.3,2.2-0.9,2.9c-0.3,0.4-0.9,0.8-1.6,1.2c0.8,0.4,1.4,0.8,1.9,1.3c0.9,0.9,1.3,2.1,1.3,3.5
			c0,1.7-0.6,3.2-1.7,4.3c-1.1,1.2-2.8,1.8-4.9,1.8c-1.9,0-3.5-0.5-4.8-1.5c-1.3-1-2-2.5-2-4.5c0-1.1,0.3-2.1,0.8-3
			c0.6-0.8,1.4-1.5,2.5-1.9C405.2,1280.3,404.7,1279.9,404.3,1279.5z M412.2,1288.3c0.7-0.6,1.1-1.5,1.1-2.7c0-1.3-0.4-2.2-1.2-2.9
			c-0.8-0.7-1.8-1-3-1c-1.2,0-2.1,0.3-2.9,1c-0.7,0.7-1.1,1.6-1.1,2.8c0,1,0.3,1.9,1,2.6c0.7,0.7,1.7,1.1,3.1,1.1
			C410.5,1289.2,411.5,1288.9,412.2,1288.3z M411.7,1278.7c0.6-0.6,0.9-1.3,0.9-2.2c0-0.7-0.3-1.4-0.9-2c-0.6-0.6-1.5-0.9-2.6-0.9
			c-1.2,0-2,0.3-2.5,0.9c-0.5,0.6-0.8,1.3-0.8,2.1c0,0.9,0.3,1.6,1,2.1c0.7,0.5,1.5,0.8,2.4,0.8
			C410.3,1279.6,411.1,1279.3,411.7,1278.7z"/>
		<path d="M429.8,1273.1c0.9,1.1,1.3,2.3,1.3,3.5h-2.4c-0.1-0.8-0.4-1.4-0.7-1.8c-0.6-0.8-1.5-1.2-2.7-1.2c-1.4,0-2.5,0.6-3.3,1.9
			c-0.8,1.3-1.3,3.1-1.3,5.4c0.6-0.8,1.3-1.4,2.1-1.8c0.8-0.4,1.6-0.5,2.6-0.5c1.6,0,3,0.5,4.3,1.6c1.2,1,1.8,2.6,1.8,4.7
			c0,1.8-0.6,3.3-1.7,4.7c-1.1,1.4-2.8,2-4.9,2c-1.8,0-3.4-0.7-4.7-2.1c-1.3-1.4-2-3.7-2-7c0-2.4,0.3-4.5,0.9-6.1
			c1.1-3.2,3.2-4.8,6.2-4.8C427.4,1271.4,428.9,1272,429.8,1273.1z M428,1288c0.6-0.9,1-1.9,1-3.1c0-1-0.3-1.9-0.9-2.8
			c-0.6-0.9-1.6-1.3-3.1-1.3c-1,0-2,0.3-2.8,1c-0.8,0.7-1.2,1.7-1.2,3.1c0,1.2,0.4,2.3,1.1,3.1c0.7,0.8,1.7,1.3,3,1.3
			C426.4,1289.2,427.3,1288.8,428,1288z"/>
		<path d="M445.2,1273.1c0.9,1.1,1.3,2.3,1.3,3.5h-2.4c-0.1-0.8-0.4-1.4-0.7-1.8c-0.6-0.8-1.5-1.2-2.7-1.2c-1.4,0-2.5,0.6-3.3,1.9
			c-0.8,1.3-1.3,3.1-1.3,5.4c0.6-0.8,1.3-1.4,2.1-1.8c0.8-0.4,1.6-0.5,2.6-0.5c1.6,0,3,0.5,4.3,1.6c1.2,1,1.8,2.6,1.8,4.7
			c0,1.8-0.6,3.3-1.7,4.7c-1.1,1.4-2.8,2-4.9,2c-1.8,0-3.4-0.7-4.7-2.1c-1.3-1.4-2-3.7-2-7c0-2.4,0.3-4.5,0.9-6.1
			c1.1-3.2,3.2-4.8,6.2-4.8C442.9,1271.4,444.4,1272,445.2,1273.1z M443.4,1288c0.6-0.9,1-1.9,1-3.1c0-1-0.3-1.9-0.9-2.8
			c-0.6-0.9-1.6-1.3-3.1-1.3c-1,0-2,0.3-2.8,1c-0.8,0.7-1.2,1.7-1.2,3.1c0,1.2,0.4,2.3,1.1,3.1c0.7,0.8,1.7,1.3,3,1.3
			C441.8,1289.2,442.8,1288.8,443.4,1288z"/>
		<path d="M318.9,1334.3h2.7v8.2h10.2v-8.2h2.7v19.9h-2.7v-9.3h-10.2v9.3h-2.7V1334.3z"/>
		<path d="M349.1,1341.2c1.3,1.2,1.9,3.1,1.9,5.5c0,2.3-0.6,4.3-1.7,5.8c-1.1,1.5-2.9,2.3-5.3,2.3c-2,0-3.6-0.7-4.7-2
			c-1.2-1.3-1.8-3.2-1.8-5.4c0-2.4,0.6-4.4,1.8-5.8c1.2-1.4,2.9-2.2,5-2.2C346.3,1339.3,347.8,1339.9,349.1,1341.2z M347.6,1350.8
			c0.6-1.2,0.9-2.6,0.9-4.1c0-1.4-0.2-2.5-0.6-3.3c-0.7-1.3-1.9-2-3.5-2c-1.5,0-2.5,0.6-3.2,1.7c-0.7,1.1-1,2.5-1,4.1
			c0,1.5,0.3,2.8,1,3.9c0.7,1,1.7,1.5,3.2,1.5C345.9,1352.7,347,1352.1,347.6,1350.8z"/>
		<path d="M354,1339.7h2.4v2.1c0.6-0.7,1.1-1.2,1.6-1.6c0.8-0.6,1.7-0.8,2.7-0.8c1.2,0,2.1,0.3,2.8,0.9c0.4,0.3,0.8,0.8,1.1,1.4
			c0.5-0.8,1.2-1.4,1.9-1.7c0.7-0.4,1.6-0.6,2.5-0.6c2,0,3.3,0.7,4,2.1c0.4,0.8,0.6,1.8,0.6,3.1v9.7h-2.5v-10.1c0-1-0.2-1.6-0.7-2
			c-0.5-0.4-1.1-0.5-1.8-0.5c-1,0-1.8,0.3-2.5,1c-0.7,0.6-1,1.7-1,3.2v8.5h-2.5v-9.5c0-1-0.1-1.7-0.4-2.2c-0.4-0.7-1.1-1-2.1-1
			c-0.9,0-1.8,0.4-2.5,1.1c-0.8,0.7-1.1,2-1.1,3.9v7.7H354V1339.7z"/>
		<path d="M386.2,1340.1c1,0.5,1.7,1.1,2.2,1.9c0.5,0.7,0.8,1.6,1,2.6c0.1,0.7,0.2,1.7,0.2,3.2H379c0,1.5,0.4,2.7,1,3.6
			c0.6,0.9,1.6,1.3,3,1.3c1.3,0,2.3-0.4,3-1.3c0.4-0.5,0.7-1.1,0.9-1.7h2.4c-0.1,0.5-0.3,1.1-0.6,1.8c-0.4,0.7-0.8,1.2-1.2,1.6
			c-0.7,0.7-1.6,1.2-2.7,1.5c-0.6,0.1-1.2,0.2-2,0.2c-1.8,0-3.3-0.7-4.6-2c-1.2-1.3-1.9-3.2-1.9-5.5c0-2.3,0.6-4.2,1.9-5.7
			c1.3-1.5,2.9-2.2,4.9-2.2C384.2,1339.4,385.2,1339.6,386.2,1340.1z M387,1345.8c-0.1-1.1-0.3-1.9-0.7-2.5
			c-0.7-1.2-1.8-1.8-3.3-1.8c-1.1,0-2,0.4-2.8,1.2c-0.8,0.8-1.2,1.8-1.2,3.1H387z"/>
		<path d="M394.1,1349.7c0.1,0.8,0.3,1.4,0.6,1.9c0.6,0.8,1.7,1.2,3.3,1.2c0.9,0,1.7-0.2,2.4-0.6c0.7-0.4,1.1-1,1.1-1.8
			c0-0.6-0.3-1.1-0.8-1.4c-0.4-0.2-1.1-0.4-2.1-0.7l-2-0.5c-1.3-0.3-2.2-0.7-2.8-1c-1.1-0.7-1.6-1.6-1.6-2.7c0-1.4,0.5-2.5,1.5-3.3
			c1-0.8,2.4-1.3,4-1.3c2.2,0,3.8,0.6,4.8,1.9c0.6,0.8,0.9,1.7,0.9,2.6h-2.3c0-0.5-0.2-1-0.6-1.5c-0.6-0.6-1.6-1-3-1
			c-0.9,0-1.7,0.2-2.1,0.5c-0.5,0.4-0.7,0.8-0.7,1.4c0,0.6,0.3,1.1,1,1.5c0.4,0.2,0.9,0.4,1.6,0.6l1.6,0.4c1.8,0.4,3,0.8,3.6,1.2
			c0.9,0.6,1.4,1.6,1.4,2.9c0,1.3-0.5,2.4-1.5,3.3c-1,0.9-2.5,1.4-4.5,1.4c-2.2,0-3.7-0.5-4.6-1.5c-0.9-1-1.4-2.2-1.5-3.6H394.1z"/>
		<path d="M407,1335.7h2.5v4.1h2.3v2h-2.3v9.5c0,0.5,0.2,0.8,0.5,1c0.2,0.1,0.5,0.1,0.9,0.1c0.1,0,0.2,0,0.4,0c0.1,0,0.3,0,0.5,0
			v1.9c-0.3,0.1-0.6,0.1-0.9,0.2c-0.3,0-0.6,0.1-1,0.1c-1.1,0-1.9-0.3-2.3-0.9c-0.4-0.6-0.6-1.3-0.6-2.3v-9.6h-2v-2h2V1335.7z"/>
		<path d="M422,1345.5c0.6-0.1,0.9-0.3,1.1-0.7c0.1-0.2,0.2-0.5,0.2-0.9c0-0.8-0.3-1.4-0.9-1.8c-0.6-0.4-1.4-0.6-2.5-0.6
			c-1.3,0-2.2,0.3-2.7,1c-0.3,0.4-0.5,0.9-0.6,1.7h-2.3c0-1.8,0.6-3,1.7-3.7s2.4-1.1,3.9-1.1c1.7,0,3.1,0.3,4.2,1
			c1.1,0.7,1.6,1.7,1.6,3v8.4c0,0.3,0.1,0.5,0.2,0.6c0.1,0.2,0.3,0.2,0.7,0.2c0.1,0,0.2,0,0.4,0c0.1,0,0.3,0,0.4-0.1v1.8
			c-0.4,0.1-0.7,0.2-0.9,0.2c-0.2,0-0.5,0-0.8,0c-0.8,0-1.5-0.3-1.8-0.9c-0.2-0.3-0.3-0.8-0.4-1.3c-0.5,0.7-1.2,1.2-2.1,1.7
			c-0.9,0.5-2,0.7-3.1,0.7c-1.3,0-2.4-0.4-3.3-1.2c-0.9-0.8-1.3-1.8-1.3-3.1c0-1.3,0.4-2.4,1.3-3.1c0.8-0.7,1.9-1.2,3.3-1.4
			L422,1345.5z M416.9,1352.1c0.5,0.4,1.1,0.6,1.8,0.6c0.9,0,1.7-0.2,2.5-0.6c1.4-0.7,2-1.7,2-3.2v-2c-0.3,0.2-0.7,0.3-1.2,0.5
			c-0.5,0.1-0.9,0.2-1.4,0.3l-1.5,0.2c-0.9,0.1-1.5,0.3-2,0.6c-0.8,0.4-1.1,1.1-1.1,2C416.1,1351.1,416.4,1351.7,416.9,1352.1z"/>
		<path d="M438.8,1339.7h2.7c-0.3,0.9-1.1,3.1-2.3,6.4c-0.9,2.5-1.6,4.5-2.2,6.1c-1.4,3.7-2.4,6-3,6.8c-0.6,0.8-1.6,1.2-3,1.2
			c-0.3,0-0.6,0-0.8,0c-0.2,0-0.4-0.1-0.7-0.1v-2.2c0.4,0.1,0.7,0.2,0.9,0.2c0.2,0,0.4,0,0.5,0c0.5,0,0.8-0.1,1-0.2
			c0.2-0.1,0.4-0.3,0.5-0.5c0-0.1,0.2-0.4,0.5-1.1c0.3-0.7,0.5-1.2,0.6-1.5l-5.4-15h2.8l3.9,11.8L438.8,1339.7z"/>
		<path d="M443.9,1334.3h2.6v9.8l10-9.8h3.8l-8.5,8l8.7,11.9h-3.5l-7.1-10l-3.2,3.1v6.9h-2.6V1334.3z"/>
		<path d="M464.6,1339.7v9.6c0,0.7,0.1,1.3,0.3,1.8c0.4,0.9,1.2,1.3,2.4,1.3c1.7,0,2.8-0.8,3.4-2.3c0.3-0.8,0.5-1.9,0.5-3.4v-7.1
			h2.4v14.5h-2.3l0-2.1c-0.3,0.6-0.7,1-1.2,1.4c-0.9,0.8-2,1.1-3.3,1.1c-2,0-3.4-0.7-4.2-2.1c-0.4-0.7-0.6-1.7-0.6-3v-9.9H464.6z"/>
		<path d="M485.4,1345.5c0.6-0.1,0.9-0.3,1.1-0.7c0.1-0.2,0.2-0.5,0.2-0.9c0-0.8-0.3-1.4-0.9-1.8c-0.6-0.4-1.4-0.6-2.5-0.6
			c-1.3,0-2.2,0.3-2.7,1c-0.3,0.4-0.5,0.9-0.6,1.7h-2.3c0-1.8,0.6-3,1.7-3.7s2.4-1.1,3.9-1.1c1.7,0,3.1,0.3,4.2,1
			c1.1,0.7,1.6,1.7,1.6,3v8.4c0,0.3,0.1,0.5,0.2,0.6c0.1,0.2,0.3,0.2,0.7,0.2c0.1,0,0.2,0,0.4,0c0.1,0,0.3,0,0.4-0.1v1.8
			c-0.4,0.1-0.7,0.2-0.9,0.2c-0.2,0-0.5,0-0.8,0c-0.8,0-1.5-0.3-1.8-0.9c-0.2-0.3-0.3-0.8-0.4-1.3c-0.5,0.7-1.2,1.2-2.1,1.7
			c-0.9,0.5-2,0.7-3.1,0.7c-1.3,0-2.4-0.4-3.3-1.2c-0.9-0.8-1.3-1.8-1.3-3.1c0-1.3,0.4-2.4,1.3-3.1c0.8-0.7,1.9-1.2,3.3-1.4
			L485.4,1345.5z M480.2,1352.1c0.5,0.4,1.1,0.6,1.8,0.6c0.9,0,1.7-0.2,2.5-0.6c1.4-0.7,2-1.7,2-3.2v-2c-0.3,0.2-0.7,0.3-1.2,0.5
			c-0.5,0.1-0.9,0.2-1.4,0.3l-1.5,0.2c-0.9,0.1-1.5,0.3-2,0.6c-0.8,0.4-1.1,1.1-1.1,2C479.4,1351.1,479.7,1351.7,480.2,1352.1z"/>
		<path d="M493,1339.7h2.3v2.1c0.7-0.8,1.4-1.5,2.2-1.8c0.8-0.4,1.6-0.6,2.6-0.6c2.1,0,3.5,0.7,4.2,2.2c0.4,0.8,0.6,1.9,0.6,3.4v9.3
			h-2.5v-9.2c0-0.9-0.1-1.6-0.4-2.1c-0.4-0.9-1.2-1.4-2.4-1.4c-0.6,0-1.1,0.1-1.4,0.2c-0.7,0.2-1.3,0.6-1.8,1.2
			c-0.4,0.5-0.7,1-0.8,1.5c-0.1,0.5-0.2,1.2-0.2,2.2v7.6H493V1339.7z"/>
		<path d="M509,1335.7h2.5v4.1h2.3v2h-2.3v9.5c0,0.5,0.2,0.8,0.5,1c0.2,0.1,0.5,0.1,0.9,0.1c0.1,0,0.2,0,0.4,0c0.1,0,0.3,0,0.5,0
			v1.9c-0.3,0.1-0.6,0.1-0.9,0.2c-0.3,0-0.6,0.1-1,0.1c-1.1,0-1.9-0.3-2.3-0.9c-0.4-0.6-0.6-1.3-0.6-2.3v-9.6h-2v-2h2V1335.7z"/>
		<path d="M524,1345.5c0.6-0.1,0.9-0.3,1.1-0.7c0.1-0.2,0.2-0.5,0.2-0.9c0-0.8-0.3-1.4-0.9-1.8c-0.6-0.4-1.4-0.6-2.5-0.6
			c-1.3,0-2.2,0.3-2.7,1c-0.3,0.4-0.5,0.9-0.6,1.7h-2.3c0-1.8,0.6-3,1.7-3.7c1.1-0.7,2.4-1.1,3.9-1.1c1.7,0,3.1,0.3,4.2,1
			c1.1,0.7,1.6,1.7,1.6,3v8.4c0,0.3,0.1,0.5,0.2,0.6c0.1,0.2,0.3,0.2,0.7,0.2c0.1,0,0.2,0,0.4,0c0.1,0,0.3,0,0.4-0.1v1.8
			c-0.4,0.1-0.7,0.2-0.9,0.2c-0.2,0-0.5,0-0.8,0c-0.8,0-1.5-0.3-1.8-0.9c-0.2-0.3-0.3-0.8-0.4-1.3c-0.5,0.7-1.2,1.2-2.1,1.7
			c-0.9,0.5-2,0.7-3.1,0.7c-1.3,0-2.4-0.4-3.3-1.2c-0.9-0.8-1.3-1.8-1.3-3.1c0-1.3,0.4-2.4,1.3-3.1c0.8-0.7,1.9-1.2,3.3-1.4
			L524,1345.5z M518.8,1352.1c0.5,0.4,1.1,0.6,1.8,0.6c0.9,0,1.7-0.2,2.5-0.6c1.4-0.7,2-1.7,2-3.2v-2c-0.3,0.2-0.7,0.3-1.2,0.5
			c-0.5,0.1-0.9,0.2-1.4,0.3l-1.5,0.2c-0.9,0.1-1.5,0.3-2,0.6c-0.8,0.4-1.1,1.1-1.1,2C518.1,1351.1,518.3,1351.7,518.8,1352.1z"/>
		<path d="M531.7,1339.7h2.3v2.1c0.7-0.8,1.4-1.5,2.2-1.8c0.8-0.4,1.6-0.6,2.6-0.6c2.1,0,3.5,0.7,4.2,2.2c0.4,0.8,0.6,1.9,0.6,3.4
			v9.3H541v-9.2c0-0.9-0.1-1.6-0.4-2.1c-0.4-0.9-1.2-1.4-2.4-1.4c-0.6,0-1.1,0.1-1.4,0.2c-0.7,0.2-1.3,0.6-1.8,1.2
			c-0.4,0.5-0.7,1-0.8,1.5c-0.1,0.5-0.2,1.2-0.2,2.2v7.6h-2.4V1339.7z"/>
		<path d="M547.2,1349.9c0.6-1.2,1.8-2.4,3.5-3.4l2.6-1.5c1.2-0.7,2-1.3,2.5-1.7c0.7-0.8,1.1-1.6,1.1-2.6c0-1.1-0.3-2-1-2.7
			c-0.7-0.7-1.6-1-2.7-1c-1.7,0-2.8,0.6-3.5,1.9c-0.3,0.7-0.5,1.6-0.6,2.8h-2.5c0-1.7,0.3-3.1,0.9-4.1c1.1-1.9,2.9-2.8,5.6-2.8
			c2.2,0,3.9,0.6,4.9,1.8c1,1.2,1.5,2.5,1.5,4c0,1.6-0.5,2.9-1.6,4c-0.6,0.6-1.8,1.4-3.4,2.3l-1.9,1c-0.9,0.5-1.6,1-2.1,1.4
			c-0.9,0.8-1.5,1.7-1.7,2.6h10.6v2.3h-13.3C546.3,1352.6,546.6,1351.1,547.2,1349.9z"/>
		<path d="M565,1339.7v9.6c0,0.7,0.1,1.3,0.3,1.8c0.4,0.9,1.2,1.3,2.4,1.3c1.7,0,2.8-0.8,3.4-2.3c0.3-0.8,0.5-1.9,0.5-3.4v-7.1h2.4
			v14.5h-2.3l0-2.1c-0.3,0.6-0.7,1-1.2,1.4c-0.9,0.8-2,1.1-3.3,1.1c-2,0-3.4-0.7-4.2-2.1c-0.4-0.7-0.6-1.7-0.6-3v-9.9H565z"/>
	</g>
</g>
<image style="overflow:visible;" width="354" height="76" xlink:href="1DED3B3B.jpg"  transform="matrix(1 0 0 1 -361.6948 416.5134)">
</image>
<image style="overflow:visible;" width="289" height="81" xlink:href="1DED3B39.jpg"  transform="matrix(1 0 0 1 -206.8722 460.4902)">
</image>
</svg>
