<?xml version="1.0" encoding="utf-8"?>
<!-- Generator: Adobe Illustrator 27.0.0, SVG Export Plug-In . SVG Version: 6.00 Build 0)  -->
<svg version="1.1" id="Layer_1" xmlns="http://www.w3.org/2000/svg" xmlns:xlink="http://www.w3.org/1999/xlink" x="0px" y="0px"
	 viewBox="0 0 375.8 99.6" style="enable-background:new 0 0 375.8 99.6;" xml:space="preserve">
<style type="text/css">
	.st0{fill:#445063;}
	.st1{fill:#00B3E5;}
	.st2{fill:#0878BE;}
	.st3{fill:#00B4E5;}
</style>
<g>
	<g>
		<path class="st0" d="M13.1,39.6c-2.4,0-4.3-0.8-5.9-2.5c-1.6-1.6-2.4-3.7-2.4-6.2c0-2.5,0.8-4.5,2.4-6.2c1.6-1.6,3.5-2.5,5.9-2.5
			s4.3,0.8,5.9,2.5c1.6,1.6,2.4,3.7,2.4,6.2c0,2.5-0.8,4.5-2.4,6.2C17.4,38.8,15.4,39.6,13.1,39.6z"/>
		<path class="st0" d="M13.7,82.3c-2.4,0-4.3-0.8-5.9-2.5c-1.6-1.7-2.4-3.7-2.4-6.2c0-2.6,0.8-4.6,2.4-6.2c1.6-1.6,3.5-2.4,5.9-2.4
			s4.3,0.8,5.9,2.4c1.6,1.6,2.4,3.7,2.4,6.2c0,2.5-0.8,4.6-2.4,6.2C18,81.5,16.1,82.3,13.7,82.3z"/>
		<path class="st0" d="M119.4,97.4V6.8h20.1v74.5h42.8l-7.1,16.2H119.4z"/>
		<g>
			<path class="st0" d="M39.9,97.4V6.8h24.2c9.3,0,17.3,1.7,23.9,5c6.6,3.4,11.6,8.3,15.1,15c3.5,6.6,5.2,15,5.2,25
				c0,10-1.7,18.4-5.2,25.1c-3.5,6.8-8.4,11.9-14.9,15.3c-6.5,3.4-14.2,5.2-23.2,5.2H39.9z M56.1,81.7H63c6.1,0,11.2-1.2,15.5-3.5
				c4.3-2.3,7.6-5.9,9.8-10.7c2.2-4.8,3.4-8.3,3.4-15.7c0-7.5-1.1-12.3-3.4-17c-2.3-4.7-5.5-8.1-9.8-10.3c-4.3-2.2-9.5-3.3-15.5-3.3
				h-6.9V81.7z"/>
		</g>
		<path class="st0" d="M247.6,6.5h-22.9l-35.5,89.8h20.7l8.8-18.8H256l8.4,18.8h18.8L247.6,6.5z M224.7,62.9l13-32.1l11.9,32.1
			H224.7z"/>
		<path class="st0" d="M366.7,55.5c-1.6-1.5-3.3-2.8-5.2-3.9l0,0c-2-2.6-0.6-5.5,1.3-8.5c1.7-1.8,2.6-3.9,3.6-6.2
			c1.1-2.6,1.7-5.3,1.7-8.2c0-5.5-1.6-9.8-4.8-13c-3.2-3.2-7.5-5.5-13.1-6.9c-5.6-1.4-11.9-2.1-19-2.1h-33.2v89.4h35.7
			c7.7,0,14.5-0.9,20.5-2.8c6-1.9,9.4-4.8,12.9-8.7c3.5-3.9,5.2-8.8,5.2-14.8C372.3,63.8,370.5,59.1,366.7,55.5z M316.6,21.1h13.3
			c6.7,0,14.3,0.9,17.7,2.7c3.4,1.8,5,2.9,5,7.2c0,3.9-1.6,5-4.8,7.3c-3.2,2.3-11,3.4-18.2,3.4h-13V21.1z M346.9,78.2
			c-4.1,2.4-7.3,3.6-14.9,3.6h-15.4V56.3H332c7.7,0,10.9,1,14.9,3.1c4,2.1,6,4.9,6,9.6C353,74,350.9,75.8,346.9,78.2z"/>
	</g>
	<g>
		<path class="st1" d="M10.5,37c-2.4,0-4.3-0.8-5.9-2.5c-1.6-1.6-2.4-3.7-2.4-6.2c0-2.5,0.8-4.5,2.4-6.2c1.6-1.6,3.5-2.5,5.9-2.5
			s4.3,0.8,5.9,2.5c1.6,1.6,2.4,3.7,2.4,6.2c0,2.5-0.8,4.5-2.4,6.2C14.8,36.2,12.9,37,10.5,37z"/>
		<path class="st1" d="M11.1,79.7c-2.4,0-4.3-0.8-5.9-2.5c-1.6-1.7-2.4-3.7-2.4-6.2c0-2.6,0.8-4.6,2.4-6.2c1.6-1.6,3.5-2.4,5.9-2.4
			s4.3,0.8,5.9,2.4c1.6,1.6,2.4,3.7,2.4,6.2c0,2.5-0.8,4.6-2.4,6.2C15.4,78.9,13.5,79.7,11.1,79.7z"/>
		<path class="st2" d="M116.8,94.8V4.2h20.1v74.5h42.8l-7.1,16.2H116.8z"/>
		<g>
			<path class="st3" d="M37.3,94.8V4.2h24.2c9.3,0,17.3,1.7,23.9,5c6.6,3.4,11.6,8.3,15.1,15c3.5,6.6,5.2,15,5.2,25
				c0,10-1.7,18.4-5.2,25.1C97,81.1,92,86.2,85.6,89.7c-6.5,3.4-14.2,5.2-23.2,5.2H37.3z M53.5,79.1h6.9c6.1,0,11.2-1.2,15.5-3.5
				c4.3-2.3,7.6-5.9,9.8-10.7c2.2-4.8,3.4-8.3,3.4-15.7c0-7.5-1.1-12.3-3.4-17c-2.3-4.7-5.5-8.1-9.8-10.3c-4.3-2.2-9.5-3.3-15.5-3.3
				h-6.9V79.1z"/>
		</g>
		<path class="st2" d="M245,3.9h-22.9l-35.5,89.8h20.7L216,75h37.4l8.4,18.8h18.8L245,3.9z M222.1,60.4l13-32.1L247,60.4H222.1z"/>
		<path class="st2" d="M364.2,53c-1.6-1.5-3.3-2.8-5.2-3.9l0,0c-2-2.6-0.6-5.5,1.3-8.5c1.7-1.8,2.6-3.9,3.6-6.2
			c1.1-2.6,1.7-5.3,1.7-8.2c0-5.5-1.6-9.8-4.8-13c-3.2-3.2-7.5-5.5-13.1-6.9c-5.6-1.4-11.9-2.1-19-2.1h-33.2v89.4h35.7
			c7.7,0,14.5-0.9,20.5-2.8c6-1.9,9.4-4.8,12.9-8.7c3.5-3.9,5.2-8.8,5.2-14.8C369.8,61.3,367.9,56.5,364.2,53z M314,18.5h13.3
			c6.7,0,14.3,0.9,17.7,2.7c3.4,1.8,5,2.9,5,7.2c0,3.9-1.6,5-4.8,7.3c-3.2,2.3-11,3.4-18.2,3.4h-13V18.5z M344.3,75.6
			c-4.1,2.4-7.3,3.6-14.9,3.6H314V53.7h15.4c7.7,0,10.9,1,14.9,3.1c4,2.1,6,4.9,6,9.6C350.4,71.5,348.4,73.2,344.3,75.6z"/>
	</g>
</g>
</svg>
