<?xml version="1.0" encoding="utf-8"?>
<!-- Generator: Adobe Illustrator 27.0.0, SVG Export Plug-In . SVG Version: 6.00 Build 0)  -->
<svg version="1.1" id="Layer_1" xmlns="http://www.w3.org/2000/svg" xmlns:xlink="http://www.w3.org/1999/xlink" x="0px" y="0px"
	 viewBox="0 0 35 35" style="enable-background:new 0 0 35 35;" xml:space="preserve">
<style type="text/css">
	.st0{fill:#009FC9;}
</style>
<g>
	<g>
		<g>
			<g>
				<path class="st0" d="M13,33.6c0,0,0.1-6.1-0.7-8.3c-0.8-2.3-1.7-5.9-7.6-9.7c-2.1-1.3-2.7-1.2-2.9-1.1c-0.2,0.1-0.5,0.7-0.5,3.1
					c0.1,2.4-0.1,9.2,2.8,12.1C7,32.7,9.2,33.4,13,33.6z"/>
				<path class="st0" d="M17.7,17.5c4.6-7.4,11.6-10,12.3-10.2c0.7-0.2,1-0.4,1-1c0.1-0.5-0.8-1.6-3.2-2.8
					c-3.4-1.6-10.1-1.4-10.1-1.4S10.9,1.9,7.5,3.5C5.1,4.7,4.2,5.8,4.3,6.3c0.1,0.5,0.4,0.8,1,1C6.1,7.5,13.1,10.1,17.7,17.5z"/>
				<path class="st0" d="M17.7,33.8c1.2,0,2.3-0.1,3.4-0.1c0,0,0.1-5.5-0.2-7.5c-0.4-2.3-1.1-5.8-3.1-8.6c-2,2.8-2.8,6.3-3.1,8.6
					c-0.3,2-0.2,7.5-0.2,7.5C15.3,33.7,16.5,33.8,17.7,33.8z"/>
				<path class="st0" d="M22.3,33.6c0,0-0.1-6.1,0.7-8.3c0.8-2.3,1.7-5.9,7.6-9.7c2.1-1.3,2.7-1.2,2.9-1.1c0.2,0.1,0.5,0.7,0.5,3.1
					c-0.1,2.4,0.1,9.2-2.8,12.1C28.4,32.7,26.2,33.4,22.3,33.6z"/>
				<path class="st0" d="M3.4,9.1C2.9,9,2.7,8.6,2.7,8.2c0-0.5,0.4-1,1-1c0.1,0,0.3,0,0.4,0.1c0,0,4.4,2,7.2,5.7l-0.1,0.1
					C7.5,10.1,3.4,9.1,3.4,9.1z"/>
				<path class="st0" d="M2.4,11.4c-0.4-0.1-0.7-0.5-0.7-0.9c0-0.5,0.4-1,0.9-1c0.1,0,0.3,0,0.4,0.1c0,0,4.5,1.8,7.3,5.2l-0.1,0.1
					C6.3,12.1,2.4,11.4,2.4,11.4z"/>
				<path class="st0" d="M2.2,13.9c-0.4-0.1-0.7-0.5-0.7-0.9c0-0.5,0.4-1,0.9-1c0,0,0.2,0,0.4,0.1c0,0,4.3,1.8,6.5,4.5l-0.1,0.1
					C5.5,14.2,2.2,13.9,2.2,13.9z"/>
				<path class="st0" d="M32,9.1c0.4-0.1,0.7-0.5,0.7-0.9c0-0.5-0.4-1-1-1c-0.1,0-0.3,0-0.4,0.1c0,0-4.4,2-7.2,5.7l0.1,0.1
					C27.9,10.1,32,9.1,32,9.1z"/>
				<path class="st0" d="M33,11.4c0.4-0.1,0.7-0.5,0.7-0.9c0-0.5-0.4-1-0.9-1c-0.1,0-0.3,0-0.4,0.1c0,0-4.5,1.8-7.3,5.2l0.1,0.1
					C29.1,12.1,33,11.4,33,11.4z"/>
				<path class="st0" d="M33.2,13.9c0.4-0.1,0.7-0.5,0.7-0.9c0-0.5-0.4-1-0.9-1c0,0-0.2,0-0.4,0.1c0,0-4.3,1.8-6.6,4.5l0.1,0.1
					C29.9,14.2,33.2,13.9,33.2,13.9z"/>
			</g>
		</g>
	</g>
</g>
</svg>
