<?xml version="1.0" encoding="utf-8"?>
<!-- Generator: Adobe Illustrator 27.0.0, SVG Export Plug-In . SVG Version: 6.00 Build 0)  -->
<svg version="1.1" id="Layer_1" xmlns="http://www.w3.org/2000/svg" xmlns:xlink="http://www.w3.org/1999/xlink" x="0px" y="0px"
	 viewBox="0 0 26 26" style="enable-background:new 0 0 26 26;" xml:space="preserve">
<style type="text/css">
	.st0{fill:#9A9A9A;}
</style>
<path class="st0" d="M25.5,13.1c0-7-5.6-12.6-12.5-12.6S0.5,6.1,0.5,13.1C0.5,19.4,5,24.6,11,25.5v-8.8H7.9v-3.6H11v-2.8
	c0-3.2,1.9-4.9,4.7-4.9c1.4,0,2.8,0.2,2.8,0.2v3.1H17c-1.6,0-2,1-2,2v2.4h3.5l-0.6,3.6H15v8.8C21,24.6,25.5,19.4,25.5,13.1z"/>
<path class="st0" d="M144.9,0.3h-23.2c-0.6,0-1,0.5-1,1v23.3c0,0.6,0.5,1,1,1h23.2c0.6,0,1-0.5,1-1V1.4
	C145.9,0.8,145.4,0.3,144.9,0.3z M138.9,18.6h-3.5l-4.2-6v6h-3.7V7.4h3.5l4.2,6v-6h3.7V18.6z"/>
</svg>
