<?xml version="1.0" encoding="utf-8"?>
<!-- Generator: Adobe Illustrator 27.0.0, SVG Export Plug-In . SVG Version: 6.00 Build 0)  -->
<svg version="1.1" id="Layer_1" xmlns="http://www.w3.org/2000/svg" xmlns:xlink="http://www.w3.org/1999/xlink" x="0px" y="0px"
	 viewBox="0 0 89.5 87" style="enable-background:new 0 0 89.5 87;" xml:space="preserve">
<style type="text/css">
	.st0{fill:#9A9A9A;}
</style>
<g>
	<g>
		<g>
			<g>
				<path class="st0" d="M32.6,85.2c0,0,0.3-16.1-1.8-22c-2.1-6-4.5-15.6-20.1-25.7c-5.5-3.5-7.2-3.2-7.8-2.9
					c-0.6,0.3-1.4,1.8-1.3,8.2C1.8,49.3,1.4,67.1,9,75C16.6,82.8,22.5,84.7,32.6,85.2z"/>
				<path class="st0" d="M44.9,42.8c12.2-19.6,30.7-26.5,32.7-27.1c1.7-0.5,2.6-1.1,2.7-2.5c0.2-1.4-2.1-4.4-8.6-7.4
					c-8.9-4.2-26.8-3.7-26.8-3.7S27,1.6,18.1,5.8c-6.5,3.1-8.7,6.1-8.6,7.4c0.2,1.4,1,2,2.8,2.5C14.3,16.3,32.7,23.2,44.9,42.8z"/>
				<path class="st0" d="M44.9,85.8c3.2,0,6.2-0.1,8.9-0.3c0,0,0.3-14.5-0.6-19.8c-1-6-3-15.4-8.3-22.7c-5.2,7.3-7.3,16.7-8.3,22.7
					c-0.9,5.4-0.6,19.8-0.6,19.8C38.8,85.7,41.7,85.8,44.9,85.8z"/>
				<path class="st0" d="M57.3,85.2c0,0-0.3-16.1,1.8-22c2.1-6,4.5-15.6,20.1-25.7c5.4-3.5,7.2-3.2,7.8-2.9c0.6,0.3,1.4,1.8,1.3,8.2
					C88,49.3,88.5,67.1,80.9,75C73.3,82.8,67.4,84.7,57.3,85.2z"/>
				<path class="st0" d="M7.1,20.5C6,20.3,5.2,19.2,5.2,18c0-1.4,1.2-2.6,2.6-2.6c0.2,0,0.7,0.1,1,0.2c0,0,11.7,5.3,19.1,15.1
					L27.8,31C17.9,23.3,7.1,20.5,7.1,20.5z"/>
				<path class="st0" d="M4.4,26.6c-1.1-0.3-1.9-1.3-2-2.4c0-1.4,1.1-2.7,2.5-2.7c0.3,0,0.8,0.1,1.2,0.2c0,0,11.8,4.8,19.2,13.8
					l-0.2,0.3C14.8,28.4,4.4,26.6,4.4,26.6z"/>
				<path class="st0" d="M3.9,33.1C2.8,32.9,2,31.9,2,30.8c-0.1-1.4,1-2.7,2.4-2.7c0.1,0,0.5,0,1,0.2c0,0,11.4,4.6,17.3,11.8
					l-0.2,0.3C12.7,34.1,3.9,33.1,3.9,33.1z"/>
				<path class="st0" d="M82.8,20.5c1.1-0.2,1.9-1.3,1.9-2.5c0-1.4-1.2-2.6-2.6-2.6c-0.2,0-0.7,0.1-1,0.2c0,0-11.7,5.3-19.1,15.1
					l0.2,0.3C72,23.3,82.8,20.5,82.8,20.5z"/>
				<path class="st0" d="M85.4,26.6c1.1-0.3,1.9-1.3,2-2.4c0.1-1.4-1.1-2.7-2.5-2.7c-0.3,0-0.8,0.1-1.2,0.2c0,0-11.8,4.8-19.2,13.8
					l0.2,0.3C75.1,28.4,85.4,26.6,85.4,26.6z"/>
				<path class="st0" d="M85.9,33.1c1.1-0.3,1.9-1.2,1.9-2.3c0.1-1.4-1-2.7-2.4-2.7c-0.1,0-0.6,0-1,0.2c0,0-11.4,4.6-17.3,11.8
					l0.2,0.3C77.1,34.1,85.9,33.1,85.9,33.1z"/>
			</g>
		</g>
	</g>
</g>
</svg>
