<?xml version="1.0" encoding="utf-8"?>
<!-- Generator: Adobe Illustrator 27.0.0, SVG Export Plug-In . SVG Version: 6.00 Build 0)  -->
<svg version="1.1" id="Layer_1" xmlns="http://www.w3.org/2000/svg" xmlns:xlink="http://www.w3.org/1999/xlink" x="0px" y="0px"
	 viewBox="0 0 26 26" style="enable-background:new 0 0 26 26;" xml:space="preserve">
<style type="text/css">
	.st0{fill:#9A9A9A;}
</style>
<path class="st0" d="M13,6.6c-3.6,0-6.4,2.9-6.4,6.4s2.9,6.4,6.4,6.4s6.4-2.9,6.4-6.4S16.6,6.6,13,6.6z M13,17.2
	c-2.3,0-4.2-1.9-4.2-4.2s1.9-4.2,4.2-4.2s4.2,1.9,4.2,4.2S15.3,17.2,13,17.2L13,17.2z M21.2,6.3c0,0.8-0.7,1.5-1.5,1.5
	c-0.8,0-1.5-0.7-1.5-1.5s0.7-1.5,1.5-1.5S21.2,5.5,21.2,6.3z M25.4,7.8c-0.1-2-0.6-3.8-2-5.3c-1.5-1.5-3.2-1.9-5.3-2
	c-2.1-0.1-8.3-0.1-10.3,0c-2,0.1-3.8,0.6-5.3,2s-1.9,3.2-2,5.3c-0.1,2.1-0.1,8.3,0,10.3c0.1,2,0.6,3.8,2,5.3s3.2,1.9,5.3,2
	c2.1,0.1,8.3,0.1,10.3,0c2-0.1,3.8-0.6,5.3-2c1.5-1.5,1.9-3.2,2-5.3C25.6,16.1,25.6,9.9,25.4,7.8L25.4,7.8z M22.8,20.4
	c-0.4,1.1-1.3,1.9-2.4,2.4c-1.6,0.7-5.6,0.5-7.4,0.5s-5.7,0.1-7.4-0.5c-1.1-0.4-1.9-1.3-2.4-2.4c-0.7-1.7-0.5-5.6-0.5-7.4
	S2.6,7.3,3.2,5.6c0.4-1.1,1.3-1.9,2.4-2.4c1.6-0.7,5.6-0.5,7.4-0.5s5.7-0.1,7.4,0.5c1.1,0.4,1.9,1.3,2.4,2.4
	c0.7,1.7,0.5,5.6,0.5,7.4S23.4,18.7,22.8,20.4z"/>
</svg>
