<?xml version="1.0" encoding="utf-8"?>
<!-- Generator: Adobe Illustrator 27.7.0, SVG Export Plug-In . SVG Version: 6.00 Build 0)  -->
<svg version="1.1" id="Layer_1" xmlns="http://www.w3.org/2000/svg" xmlns:xlink="http://www.w3.org/1999/xlink" x="0px" y="0px"
	 viewBox="0 0 1920 600" style="enable-background:new 0 0 1920 600;" xml:space="preserve">
<style type="text/css">
	.st0{fill:#00C7E2;}
	.st1{fill:#FFFFFF;}
</style>
<rect x="0.2" y="0.4" class="st0" width="1920" height="600"/>
<g>
	<path class="st1" d="M390.9,69.3c0.8,0.3,1,1,0.8,2c-0.1,0.6-0.2,1.1-0.1,1.3s0.4,0.8,1.1,1.7c1.6,2.3,2.6,4.7,3,7.1
		s0.2,5.2-0.5,8.5c-1.3,5.2-3.5,9-6.7,11.3c-2.6,1.9-4.6,1.7-6.1-0.6c-0.2-0.4-0.4-1-0.6-1.6c-0.6-2.2-0.3-5.9,1-11.2
		c0.8-3.1,1.3-5.5,1.5-7.1c0.3-1.8,0.8-3.4,1.6-5c0.8-1.6,1.2-2.8,1.2-3.6c0-0.7,0.1-1.2,0.2-1.5s0.5-0.6,1-0.8
		C389.2,69.2,390.2,69,390.9,69.3z M389.4,76.5c-0.4,0-0.7,0.2-1,0.6s-0.5,1-0.7,1.7s-0.4,1.7-0.6,2.9c-0.4,2.3-0.7,3.6-0.8,3.9
		c-0.4,2.2-0.7,4-1,5.5c-0.2,1.5-0.3,2.7-0.4,3.7c0,1,0,1.7,0.2,2.1c0.1,0.4,0.4,0.6,0.6,0.6c0.8,0,1.8-1,3.1-3
		c1.3-2,2.1-3.9,2.5-5.8c0.4-1.5,0.6-2.4,0.7-2.7c0.4-1.4,0.5-3.1,0.2-5.2s-0.8-3.3-1.5-4C390.2,76.7,389.7,76.5,389.4,76.5z
		 M430.1,64.5c0.8,0.6,0.9,4.4,0.3,11.4c-0.6,5.8-1.1,12.9-1.5,21.5c-0.2,5.8-0.8,8.8-1.7,9c-0.3,0-0.6-0.1-1-0.3
		c-0.5-0.2-0.8-1.2-0.8-3.1c0-1.8,0.1-7.9,0.4-18.3c0.1-2.8-0.1-4.3-0.5-4.6s-1.6,0.1-3.7,1.1c-2,1.1-5.3,2.3-9.9,3.6
		c-2.2,0.6-4,1.3-5.5,1.9c-0.6,0.1-1.2,0.3-1.9,0.5c-0.9,0.3-1.6,0.5-1.9,0.6c-0.9,0.4-1.8,0.2-2.8-0.3c-0.6-0.4-0.9-0.9-0.9-1.3
		s0.3-0.9,0.9-1.3s1.4-0.8,2.4-1c0.6-0.1,2.1-0.7,4.7-1.6c2.5-0.9,4.7-1.6,6.7-2.1c0.4-0.1,2-0.5,4.8-1.2c4.1-0.9,6.6-1.8,7.5-2.7
		c0.3-0.3,0.5-0.7,0.5-1.1c0.1-0.5,0.1-1.8,0.1-4c0-2.3,0.1-3.9,0.2-4.6s0.5-1.4,1.1-2.1C428.4,63.8,429.2,63.8,430.1,64.5z
		 M411.2,114c0.3,0.3,0.3,1.4,0.1,3.3c-0.1,2-0.2,4.4-0.3,7.1c-0.1,2.3,0,3.7,0.3,4.2s1,0.5,2.1,0.1c0.6-0.2,1.2-0.4,2-0.6l1.9-0.5
		c0.1,0,0.2-0.1,0.5-0.2s0.5-0.2,0.8-0.3c0.2-0.1,0.5-0.1,0.7-0.1l2.8-0.8c1.8-0.6,4.6-1.3,8.3-1.9c1.6-0.3,4.3-0.6,8.1-0.6
		c3.8,0,5.9,0.1,6.2,0.5c0.9,0.7,0.6,1.3-0.9,1.9c-0.9,0.2-1.8,0.3-2.9,0.3c-2.3,0-5.5,0.4-9.8,1.2c-1.8,0.3-3.9,0.8-6.4,1.5
		s-4.3,1.3-5.5,1.8c-2.9,1.4-6,2.2-9.1,2.4c-1.5,0.1-2.5-0.5-3.1-1.7s-0.8-3.3-0.6-6.2c0.1-0.4,0.1-1.3,0.2-2.7
		c0.1-1.4,0.1-2.4,0.2-3c0.1-3.3,0.8-5.3,1.9-5.8C409.7,113.2,410.5,113.3,411.2,114z"/>
	<path class="st1" d="M476.6,84c0.4,1-0.2,3.4-1.6,7.1c-1.1,2.6-1.6,4-1.6,4.3c0,0.2-0.4,1.1-1.1,2.7c-0.8,1.6-1.1,2.5-1.1,2.9
		c0,0.6,1.2,3,3.5,7.2s4,7,5.1,8.3c0.9,1.1,1.3,1.9,1,2.4s-0.9,0.5-2.1,0c-2.3-1-4.8-4.3-7.7-9.9c-1.1-2.3-1.9-3.5-2.3-3.5
		s-1.1,1.1-1.9,3.2c-0.6,1.6-1.1,2.6-1.4,3s-0.9,1.6-1.9,3.5c-1,1.8-1.7,3-2.2,3.6s-0.9,1-1.3,1c-0.6,0-1-0.4-1-1.3s0.2-1.9,0.8-3
		c0.5-0.8,1-2.1,1.6-3.6c0.5-1.3,1.6-3.7,3.2-7.1c1.7-3.3,2.7-5.5,3.1-6.4c0.3-0.7,0.9-1.9,1.8-3.7c1.6-3.1,2.3-5.2,2.3-6.4
		c0-1.3-2.1-0.6-6.3,1.9c-1.1,0.7-2.3,1.5-3.5,2.3c-4.4,3.1-6.6,3.4-6.6,0.7c0-1.1,0.6-1.9,1.8-2.2c0.8-0.2,1.5-0.6,2.2-1.3
		c1.7-1.3,3.8-2.6,6.3-3.9c2.5-1.2,4.6-2.1,6.5-2.5C474.7,82.7,476.2,83,476.6,84z M505.1,80c0.2-0.1,0.5,0,0.9,0.1
		c0.7,0.2,1.1,0.9,1.2,2s0.1,4.9,0,11.4c0,0.4,0,0.6,0,0.8c-0.1,8.3-0.1,13.1,0,14.5c0.1,1.1,0.2,2.9,0.2,5.2s-0.1,3.8-0.2,4.3
		c-0.2,0.9-0.7,1.1-1.5,0.5c-0.4-0.3-0.8-0.8-1-1.5c-1.1-3.7-1.7-8.9-1.8-15.5c-0.1-3-0.2-4.6-0.3-4.8c-0.1-0.3-0.7-0.4-1.5-0.3
		c-0.9,0.1-1.8,0.3-2.7,0.6c-1.1,0.4-2.5,0.9-4.5,1.5c-2.4,0.6-5.5,1.8-9.1,3.8c-0.6,0.4-1.1,0.5-1.4,0.5s-0.7-0.3-1.2-0.7
		c-1.7-1.6-0.7-3.2,2.9-4.8c2.9-1.3,6.7-2.3,11.4-2.9c2.8-0.3,4.7-0.8,5.5-1.2c0.8-0.5,1.2-1.3,1.2-2.5c0-6,0.4-9.4,1.3-10.3
		C504.6,80.3,504.9,80.1,505.1,80z M523,75.2c0.6,0.5,1,6,1.1,16.6c0,6.5,0.1,12.8,0.3,19c0.3,4.8,0.3,7.8,0.2,9.3
		c-0.1,1.4-0.6,2.2-1.3,2.2c-0.6,0.1-1.1-0.3-1.4-1.3c-0.3-1-0.8-3.9-1.5-8.8c-0.3-1.6-0.4-6.9-0.4-16s-0.1-14.5-0.3-16.2
		c-0.1-2.5,0.2-4.1,1.2-4.8C521.6,74.7,522.3,74.7,523,75.2z"/>
	<path class="st1" d="M570.6,83.2c0.6,0.4,0.9,1.2,0.9,2.2s-0.3,2.3-0.8,3.9c-0.6,1.4-0.9,2.3-1,2.8c-0.7,2-2.2,6-4.6,12.1
		c-0.9,2.3-1.4,3.6-1.4,3.7s-0.7,1.9-2.2,5.3s-2.5,5.5-2.9,6.3c-0.9,1.8-1.6,2.4-2,1.8c-0.4-0.5-0.4-1.6,0.2-3.3
		c0-0.1,0.1-0.5,0.4-1.4c0.3-0.8,0.5-1.6,0.6-2.2c0.8-2.3,1.3-4,1.7-5.1c0.8-2.2,2.1-6,3.8-11.3s2.6-8.3,2.8-8.8
		c0.1-0.9-0.4-1.3-1.7-1.1c-1.1,0.2-2.7,0.8-4.8,1.8c-2.3,1.1-3.9,1.2-4.8,0.4c-0.4-0.3-0.6-0.4-0.7-0.4c-0.1,0-0.3,0.3-0.6,0.9
		c-0.5,0.8-1.3,2.5-2.5,5.2c-1.1,2.7-2,5-2.7,6.9c-3.3,9.4-5.4,14.2-6.3,14.2c-0.4,0-0.7-0.4-0.8-1.1c-0.1-0.8-0.1-1.5,0.2-2.3
		c0.5-1.7,0.8-2.9,1.1-3.7c0.7-2.3,1.7-5.3,3-9c2.5-7.6,3.7-11.7,3.6-12.4c-0.1-0.6-0.9-0.7-2.2-0.3c-0.5,0.1-0.8,0.1-1,0.2
		c-3.4,0.8-6.2,1.6-8.3,2.4c-1.3,0.6-2.2,0.7-2.7,0.3s-0.5-1,0-2c0.6-1.1,3.2-2.3,7.8-3.8c4.5-1.4,7.7-2.1,9.6-1.9
		c1.1,0.1,1.7,0.4,1.9,0.7c0.2,0.3,0.3,1.1,0.3,2.3c-0.1,1.1-0.1,1.7,0,1.7c0.1,0.1,0.2,0,0.4-0.1c1.5-1.3,4.8-2.7,9.8-3.9
		c1.7-0.4,2.8-0.8,3.3-1.1C569.2,82.8,570,82.8,570.6,83.2z M592,76.4c0.1,0.8,0.2,2.6,0.1,5.2c-0.4,9.1-0.5,13.7-0.3,13.7
		c-0.1,0,0.1,0,0.4-0.1c0.5-0.1,1-0.4,1.6-0.7c0.5-0.3,1.3-0.8,2.5-1.4s2-0.8,2.2-0.8c0.3,0,0.6-0.1,1-0.2c1.1-0.6,2.6-1.1,4.7-1.7
		c0.2-0.1,0.4-0.1,0.7-0.2s0.5-0.1,0.8-0.2s0.5-0.1,0.5-0.1c1-0.3,1.6-0.5,1.8-0.5c1.3-0.3,2.1-0.6,2.3-0.6c0.1,0,0.8-0.2,1.9-0.5
		c1-0.3,1.6-0.5,1.9-0.5c1.3-0.3,2.1-0.5,2.1-0.5c3.5-0.9,5.5-1.3,6.1-1.1c0.8,0.4,0.7,1-0.3,1.9c-0.6,0.5-1.2,0.8-1.9,1.1
		c-4.2,1.2-8.8,2.7-13.7,4.5c-5,1.8-8.4,3.2-10.3,4.2c-1.8,0.9-3.2,1.4-3.9,1.6c-0.8,0.2-1.4,0.7-1.5,1.5c-0.2,0.8-0.3,3.3-0.4,7.4
		c-0.1,4.6-0.2,7.1-0.4,7.4c-0.2,0.4-0.5,0.6-0.8,0.4s-0.6-0.5-0.9-1.1c-0.4-0.6-0.6-4.4-0.6-11.4s0-11.3,0.3-13.1
		c0.2-1.2,0.3-3.6,0.3-7.1c0-3,0.1-4.9,0.3-5.7c0.2-0.8,0.7-1.5,1.5-2C591.1,75,591.8,75.3,592,76.4z"/>
	<path class="st1" d="M650.6,82.5c0.7,1,0.3,3-1,5.8c-0.9,2.1-1.6,3.7-1.9,4.6c-0.6,1.5-1.1,2.7-1.6,3.5c-0.4,0.9-0.6,1.5-0.6,1.8
		c0,0.5,0.5,1.7,1.7,3.6c1.1,1.9,2.4,3.7,3.8,5.6c3.8,4.9,4.9,7.5,3.5,7.9c-0.4,0.1-0.8,0-1.5-0.3c-0.6-0.2-1.7-1.3-3.4-3.3
		s-3-3.8-3.8-5.3c-1.4-2.3-2.4-3.4-2.9-3.5c-0.5,0-1.3,1-2.2,3.1c-0.6,1.3-1.1,2.4-1.6,3.1c-0.5,0.8-1.2,2.2-2.1,3.9
		c-0.6,1.3-1.2,2.3-1.5,3c-0.4,0.7-0.8,1.2-1.1,1.6s-0.6,0.5-0.8,0.5s-0.5-0.2-0.8-0.6c-0.4-0.6-0.5-1.2-0.3-1.9s1.1-2.9,2.8-6.8
		c0.7-1.7,2.2-4.8,4.5-9.3s3.5-7,3.8-7.4c0.9-1.2,1.7-2.5,2.2-4c0.5-1.4,0.6-2.3,0.3-2.5c-1.3-0.7-4,0.3-8.2,3.1
		c-4.9,3.2-7.9,4.4-8.9,3.7c-0.6-0.5-0.7-1.3-0.4-2.4s0.9-1.7,1.7-1.7c0.5,0,1.4-0.5,2.7-1.4c3.5-2.3,7.8-4.1,13-5.2
		C648.3,81.3,650,81.5,650.6,82.5z M677.4,74.9c0.2,0,0.6,0.1,1.3,0.3c0.6,0.2,0.9,0.5,1,0.8c0.6,2.5,0.8,7.9,0.8,16.3
		c0,6.6,0.1,12.9,0.2,19c0.2,5.2,0.2,8.3,0.1,9.4s-0.6,1.6-1.5,1.7c-0.5,0.1-0.8-0.1-1-0.5s-0.4-1.4-0.7-3.1
		c-0.7-4.5-1.1-12.1-1.2-22.9c-0.1-9.3-0.2-14.6-0.4-16c-0.4-2.1-0.1-3.6,0.6-4.5C676.9,75.1,677.2,74.9,677.4,74.9z"/>
	<path class="st1" d="M698.7,85.6c0.3,0.2,0.5,0.6,0.5,1s-0.1,1.5-0.4,3.2c-0.9,4.5-1.6,8.4-2,11.7c-0.1,1.5-0.4,3.4-0.8,5.6
		c-0.4,2.7-0.5,4.3-0.2,4.7c0.3,0.5,1.2,0.4,2.9-0.3c0.6-0.2,1.5-0.5,2.7-0.7c1.6-0.5,2.9-0.9,3.7-1.2c1.1-0.3,2-0.5,2.8-0.7
		c0.2-0.1,0.7-0.2,1.4-0.4c0.7-0.2,1.2-0.3,1.4-0.4c0.9-0.3,2-0.6,3.2-0.8c1.1-0.3,2.3-0.6,3.4-0.8c2-0.6,3-0.3,3,0.6
		c0,0.6-1.6,1.4-4.8,2.6c-3.7,1.3-7.5,2.8-11.5,4.5c-1.4,0.6-3.3,1.4-5.6,2.2c-2.3,0.8-3.7,1.2-4.2,1.2c-1.4,0.1-2.3-0.2-2.8-1.1
		s-0.4-2.4,0-4.8c0.1-0.8,0.3-2.1,0.5-3.8c0.3-2.5,0.8-5.4,1.4-8.8c0.3-2,0.6-3.5,0.6-4.5c0.6-4.9,1.2-7.8,2-8.6
		C696.7,85,697.7,84.9,698.7,85.6z M729.4,79.4c0.5,0.5,0.7,1.5,0.6,3c-0.1,1.5-0.3,4.3-0.4,8.5c-0.1,4.2-0.1,6.5,0,6.8
		c0.1,0.4,0.4,0.6,0.9,0.5s1.5-0.6,3.1-1.4c3.3-1.6,6.1-2.8,8.5-3.4c1.3-0.4,2.3-0.7,2.8-0.8c1.7-0.5,3.6-1,5.6-1.4
		c0.3-0.1,0.7-0.2,1.3-0.3s1-0.2,1.3-0.3c0.4-0.1,1.3-0.2,2.8-0.5c2.5-0.5,4.3-0.9,5.2-1.2c2.6-0.7,5.7-1.3,9.2-1.7
		c0.8-0.1,1.4,0,1.7,0.3c1,1.2-1.5,2.4-7.3,3.7c-5.2,1.1-10.8,2.6-16.5,4.3c-5.8,1.7-9.9,3.2-12.4,4.5c-2.2,1-3.7,1.6-4.5,1.7
		s-1.2,0.3-1.4,0.8c-0.1,0.5-0.2,1.8-0.2,3.9c-0.1,6.5-0.6,9.7-1.7,9.7c-1.3,0-2-3.8-2-11.4c0-3.5-0.1-6.3-0.2-8.4
		c-0.1-1.7-0.1-4.5,0-8.5c0.1-3.1,0.2-5.1,0.3-5.8s0.6-1.5,1.3-2.1C728.1,79,728.8,78.9,729.4,79.4z"/>
	<path class="st1" d="M786.7,121c0.4,0.1,0.9,0.6,1.5,1.4s1,1.7,1.2,2.5c0.1,1.1-0.8,2.7-2.8,4.9c-0.4,0.4-0.5,0.6-0.5,0.9
		c0,0.1-0.3,0.6-0.8,1.5c-0.8,1.2-1.5,2.2-2,2.9c-0.7,1-1.7,2.1-3,3.4c-1.3,1.2-2.1,1.9-2.3,1.9c-0.3-0.2-0.4-0.6-0.4-1.1
		s0.1-1.1,0.4-1.8c0.3-0.6,0.6-1,0.8-1c0.1,0,0.2-0.3,0.2-0.9s0.2-1.2,0.5-1.8c0.1-0.2,0.4-0.9,1.1-1.9c0.9-1.6,1.1-2.7,0.4-3.2
		c-0.3-0.3-0.4-0.6-0.4-1.1c0-0.5-0.2-1.2-0.8-2.2c-0.7-1.3-0.9-2.3-0.5-3.1c0.4-0.8,1.3-1.2,2.7-1.2c0.9,0,1.6-0.1,1.9-0.2
		C784.2,120.7,785.1,120.7,786.7,121z"/>
	<path class="st1" d="M407.6,201.8c-0.1,0.2-0.2,0.5-0.4,0.8c-0.3,0.4-1.4,0.7-3.2,0.9c-2.5,0.2-4.9,0.6-7.2,1.3s-6.2,1.9-11.5,3.9
		c-2,0.7-3.2,0.7-3.6,0c-0.3-0.4-0.3-0.8-0.1-1.3c0.2-0.5,0.5-0.9,1-1.1c0.1-0.1,0.4-0.2,0.9-0.4c0.4-0.2,0.7-0.4,1-0.4
		c1-0.5,2.1-1.1,3.3-1.7c3.7-2,7.7-3.2,11.9-3.5C405,199.7,407.7,200.3,407.6,201.8z M403.8,189.6c1,0,1.5,0.1,1.6,0.3
		c0.8,0.8-0.1,1.6-2.5,2.6c-0.4,0.1-1,0.3-1.6,0.5c-1.4,0.4-2.9,1-4.7,1.8c-7.3,3.1-11.3,4-11.9,2.8c-0.8-1.4-0.1-2.7,2.1-3.9
		s5.9-2.2,11.2-3.2c0.4-0.1,0.9-0.2,1.5-0.3s1-0.1,1.3-0.2c0.3-0.1,0.5-0.1,0.7-0.2C402.1,189.6,402.8,189.5,403.8,189.6z
		 M398,211.9c0.4,0.7,1,1.2,1.8,1.6c1.5,0.6,2.3,1.5,2.5,2.8s-0.2,3.4-1.2,6.3c-1,3-2.4,5.2-4.3,6.8s-3.4,1.7-4.7,0.5
		c-1.4-1.3-1.9-3.7-1.5-7.3s1.5-6.4,3.2-8.5c0.6-0.7,0.9-1.4,1.1-1.9c0.1-0.4,0.4-0.9,0.7-1.3C396.5,210.1,397.2,210.4,398,211.9z
		 M395,218.1c-0.7,1.6-1.2,3.3-1.4,5.3c-0.2,1.7-0.2,2.7,0.1,3c0.3,0.3,0.9,0.1,1.9-0.8c1.8-1.6,3-3.3,3.4-5.2s0-3.5-1.2-4.7
		C397,214.9,396.1,215.6,395,218.1z M426.3,232.6c0.4,0.5,0.6,2.3,0.5,5.3c-0.1,3.3-0.2,5.4-0.3,6.4c-0.2,1.7-0.4,3.2-0.5,4.4
		c-0.1,1.6-0.3,2.7-0.5,3.3s-0.5,0.9-1,1.1c-1.1,0.4-1.7-0.2-1.9-1.9c-0.2-1.6-0.1-4.8,0.4-9.6c0.1-1.4,0.2-2.4,0.3-3s0.1-1.2,0-1.6
		s-0.1-0.7-0.3-0.8c-0.1-0.1-0.4-0.2-0.6-0.2c-0.6,0-1.6,0.5-3,1.4s-2.8,2-4,3.2c-1.4,1.3-2.3,2.1-3,2.4c-1.1,0.6-1.5,3-1.4,7.2
		c0.1,1.9,0,3.2,0,3.8s-0.4,1.1-0.9,1.4c-0.4,0.2-0.7,0.2-1.2,0.1c-0.4-0.2-0.8-0.5-1-0.9c-0.4-1.3-0.7-4.4-0.9-9.3
		c-0.1-4.9,0-7.7,0.4-8.5c0.4-0.9,1-1.3,1.9-1.3c0.8,0,1.4,0.4,1.8,1.2c0.3,0.6,0.5,0.9,0.7,0.9s0.7-0.4,1.5-1.1
		c0.9-0.7,2.4-1.5,4.4-2.4s3.6-1.5,4.6-1.7C424.6,232,425.9,232.1,426.3,232.6z M439.5,252.1c0.9,0,1.4,0.1,1.6,0.3
		c0.9,1,0.1,1.8-2.5,2.6c-0.3,0.1-0.6,0.1-1,0.2c-5.3,1.1-10,2.6-13.9,4.3c-1.9,0.9-3.8,1.6-5.6,2.3c-1.9,0.8-3.5,1.5-4.7,2.1
		c-2.3,1.1-3.5,1.1-3.8,0.2c-0.2-1,0.4-2,2-3.1c1.5-1.1,4-2.3,7.3-3.7c1-0.4,1.9-0.7,2.7-1.1c0.4-0.1,2-0.6,4.8-1.4
		c0.6-0.1,1.2-0.4,2-0.6c0.9-0.2,1.9-0.5,3.1-0.8c0.6-0.1,1.6-0.2,3.1-0.5c0.8-0.2,1.6-0.4,2.3-0.5
		C437.8,252.2,438.7,252.1,439.5,252.1z M428.2,193.4c0,1.5-0.1,3.3-0.3,5.3c-0.1,2.1-0.2,4.2-0.3,6.2c-0.1,2.1,0,3.3,0.3,3.5
		s1.2-0.1,2.9-0.9c2.1-1,4.9-1.8,8.4-2.6c3.5-0.7,5.5-0.8,6.1-0.3c1,0.9,0.1,1.7-2.5,2.7c-0.6,0.2-1.4,0.4-2.2,0.6
		c-2.5,0.7-5.3,1.7-8.3,2.9s-4.5,2.1-4.6,2.5s-0.1,1.6,0.2,3.6c0.8,5.3,0.5,8.4-0.9,9.1c-0.4,0.3-0.9,0.1-1.5-0.4
		c-0.5-0.4-0.8-0.8-0.9-1.2s-0.2-1.9-0.3-4.2c-0.2-3.6-0.4-6.3-0.5-8.1c-0.2-2.2-0.2-4.6,0-7.3c0.2-2.5,0.3-5.6,0.3-9.5
		c0-3.1,0.1-5,0.3-6c0.2-0.9,0.5-1.5,1.1-1.8C427.4,186.6,428.3,188.6,428.2,193.4z"/>
	<path class="st1" d="M486.4,211.2c0.7,0.7,0.7,1.9,0,3.5c-0.4,0.9-0.8,2.2-1.3,3.9c-0.6,2.2-2,6.3-4.3,12.3
		c-1.2,3.3-2.2,6.1-3.1,8.6c-1.6,4.9-2.7,7.9-3.2,9.1c-0.5,1.2-1,1.8-1.4,1.8s-0.6-0.1-0.7-0.3s-0.1-0.6,0-1.2
		c0.1-0.6,0.2-1.4,0.4-2.3c0.2-1,0.5-2.4,1-4.3c1.8-6.8,3.7-13.3,5.8-19.6c1.5-4.5,2.2-6.8,2.2-7.1c0-0.2-0.2-0.4-0.6-0.4
		c-0.4-0.1-1,0-1.6,0.1s-1.4,0.4-2.1,0.6c-2.5,0.9-4.1,1.4-4.6,1.5s-1,0.1-1.6-0.1c-0.4-0.2-0.7-0.3-0.9-0.3c-0.1,0-0.4,0.2-0.6,0.6
		c-0.4,0.6-1.4,2.7-2.9,6.3s-2.6,6.7-3.4,9.1c-0.3,0.8-0.9,2.5-1.9,5.1c-0.2,0.5-0.7,1.7-1.5,3.6c-0.6,1.5-1,2.4-1.3,2.8
		c-0.3,0.4-0.7,0.4-1.1,0.2c-0.4-0.3-0.5-1-0.4-2s0.7-3,1.6-5.8c0.6-2,1.4-4.3,2.2-6.8c0.1-0.1,0.4-1,1-2.8s1.1-3.4,1.5-4.7
		c1.7-5.1,2.4-7.8,2.1-8c-0.5-0.3-2.6,0.3-6.3,1.8c-0.3,0.1-1,0.4-2.2,0.9c-1.1,0.4-2.1,0.9-3.2,1.3c-1.6,0.8-2.6,0.7-2.9-0.2
		c-0.4-1.4,0.4-2.6,2.5-3.4c0.6-0.2,1.7-0.7,3.3-1.4c2.5-1.1,5.5-2.1,9-2.9c1.9-0.4,3.2-0.3,3.9,0.1s1.1,1.3,1.1,2.8
		c0,0.7,0.1,1.1,0.2,1.1s0.6-0.2,1.4-0.7c0.7-0.4,2.2-1,4.5-1.8s4.2-1.4,5.8-1.7C484.5,210.3,485.7,210.5,486.4,211.2z M510.4,207.4
		c0.4,0.4,0.6,1.8,0.6,4.3s-0.2,7.5-0.5,14.9c-0.1,3.7-0.2,8-0.2,12.9c0,3.9-0.1,6.2-0.2,7s-0.5,1.2-1.2,1.2
		c-1.6,0-2.5-5.5-2.5-16.4c0-4-0.2-6-0.6-6.2c-0.3-0.1-0.9-0.1-2,0.2c-1,0.3-1.9,0.6-2.7,1.1c-0.8,0.4-2.1,0.9-3.8,1.5
		c-2.8,1.1-5.1,2.2-6.7,3.2c-1.3,0.8-2.3,1.1-3,0.9c-0.8-0.2-1.1-0.8-1.1-2c0-1.1,1.5-2.3,4.4-3.7s5.9-2.3,8.9-2.8
		c3.6-0.6,5.9-1.4,6.7-2.4c0.2-0.3,0.3-1.6,0.3-4c0.1-5.8,0.4-9,1.1-9.7C508.6,206.5,509.5,206.5,510.4,207.4z M526.5,203.9
		c0.1,0.6,0.1,2.5,0.1,5.6c0.1,6.7,0,14.6-0.2,23.6s-0.4,13.8-0.6,14.5c-0.6,1.6-1.2,1.9-2,1s-1.2-8.6-1.3-23s0.2-22.1,1-22.9
		c0.8-0.8,1.6-0.8,2.5-0.1C526.2,202.9,526.5,203.3,526.5,203.9z"/>
	<path class="st1" d="M546,248.7c0.4,0.1,0.9,0.6,1.5,1.4s1,1.6,1.2,2.5c0.1,1.1-0.8,2.7-2.8,4.9c-0.4,0.4-0.5,0.6-0.5,0.9
		c0,0.1-0.3,0.6-0.8,1.5c-0.8,1.2-1.5,2.2-2,2.9c-0.7,1-1.7,2.1-3,3.4c-1.3,1.2-2.1,1.9-2.3,1.9c-0.3-0.2-0.4-0.6-0.4-1.1
		s0.1-1.1,0.4-1.8c0.3-0.6,0.6-1,0.8-1c0.1,0,0.2-0.3,0.2-0.9s0.2-1.2,0.5-1.8c0.1-0.2,0.4-0.9,1.1-1.9c0.9-1.6,1.1-2.7,0.4-3.2
		c-0.3-0.3-0.4-0.6-0.4-1.1s-0.2-1.2-0.8-2.2c-0.7-1.3-0.9-2.3-0.5-3.1s1.3-1.2,2.7-1.2c0.9,0,1.6-0.1,1.9-0.2
		C543.5,248.4,544.4,248.4,546,248.7z"/>
	<path class="st1" d="M400.6,329.1c0.3,0,0.8,0.1,1.3,0.3c0.9,0.2,1.3,0.6,1.4,1.1s-0.1,1.6-0.6,3.2c-1.4,4.4-2.7,8-3.9,11
		c-0.8,1.6-1.5,3.1-2,4.7c-3.3,8-5.6,12-6.7,12c-0.8,0-0.9-0.9-0.4-2.7c0.4-1.8,1.8-6.1,4.2-12.9c0.5-1.4,1-3,1.6-4.8
		c0.4-1.6,0.9-3,1.5-4.2c0.9-2.1,0.7-3.2-0.5-3.2c-1,0-3,0.6-6.1,1.7c-2.9,1.1-4.8,2-5.6,2.5c-1,0.6-1.8,0.8-2.5,0.5
		c-0.6-0.2-1-0.8-1-1.7c0-1.3,0.9-2.2,2.8-2.8c1.1-0.3,2-0.6,2.9-1.1c2.1-1,3.9-1.7,5.4-2.1c0.9-0.3,1.6-0.5,2.1-0.5
		c0.6-0.2,1.7-0.4,3.3-0.6C399.4,329.2,400.3,329.1,400.6,329.1z M428.8,334.2c-0.1,1.2-2.9,2.8-8.2,4.9c-0.9,0.3-1.8,0.7-3,1.2
		c-1.3,0.6-2.2,1-2.9,1.3c-1.1,0.4-2.1,0.9-3,1.3c-2.3,1.1-3.9,1.5-4.8,1.3s-1.2-1-1.1-2.4c0-0.7,0.3-1.2,0.8-1.5s2.4-1.1,5.6-2.3
		c6.1-2.2,9.9-3.3,11.4-3.3c0.6,0,1.3-0.2,2.2-0.5C427.8,333.4,428.8,333.4,428.8,334.2z M410.9,370.1c0.3,0.3,0.4,0.8,0.5,1.4
		c0,0.7,0,2.5-0.2,5.5c0,0.2,0,0.5,0,0.9c-0.1,3.3,0,5.2,0.4,5.7s1.5,0.4,3.6-0.3c0.2-0.1,0.4-0.1,0.5-0.2c1.7-0.5,3.4-0.9,5.2-1.3
		c1.4-0.4,2.3-0.6,2.5-0.6c0.7-0.1,1.5-0.3,2.3-0.5c1.8-0.5,3.6-0.9,5.3-1.1c1.3-0.2,3.8-0.4,7.5-0.6s5.6-0.2,5.8-0.1
		c0.3,0.2,0.4,0.5,0.3,0.9s-0.4,0.7-0.9,1s-0.9,0.5-1.3,0.5c-1.6,0-5.1,0.6-10.4,1.7s-9,2.1-11.2,2.9c-2.7,1.1-5.3,1.7-7.8,2
		c-1.2,0.2-2.1,0.3-2.7,0.4c-0.6,0-1.1-0.1-1.8-0.3s-1-0.5-1.2-0.9s-0.3-1.1-0.4-2.2s-0.2-2.3-0.2-3.5s0.1-3,0.2-5.4
		c0.1-2.1,0.2-3.5,0.3-4.3c0.1-0.7,0.5-1.2,1-1.6C409.3,369.2,410.2,369.3,410.9,370.1z M434.9,319.3c0.3,0.2,0.5,1.5,0.5,3.8
		s0,4.6-0.3,6.8c-0.8,6.7-1.3,13.2-1.6,19.5c-0.4,5.8-0.6,9.4-0.9,10.8s-0.7,2-1.4,2c-0.6,0-1-0.4-1.2-1.2c-0.2-0.8-0.3-2.8-0.3-6
		c-0.1-4.5,0-9.1,0.2-13.9s0.4-7.7,0.7-8.7c0.2-1.1,0.4-3.1,0.5-6.1c0.1-2.5,0.2-4.1,0.4-5c0.2-0.8,0.7-1.4,1.4-1.8
		C433.8,319.2,434.4,319.1,434.9,319.3z"/>
	<path class="st1" d="M475.7,324.9c1.2,0.4,1.8,0.9,1.8,1.4c0,0.4-0.8,2.2-2.5,5.5s-2.9,5.7-3.8,7c-2.7,4.2-4.7,7.5-6.1,10.1
		c-2.8,5-4.6,7.5-5.5,7.5s-1-0.7-0.4-2.1c0.3-0.7,0.8-1.8,1.6-3.2c3.3-6.7,5.6-11.3,6.9-13.9c0.5-1.1,1.1-2.2,1.8-3.3
		c1.5-2.6,1.9-4,1.3-4.1c-0.3-0.1-0.6-0.1-1.1,0c-2.2,0.3-5.6,1.4-10.2,3.3c-2.1,0.9-3.4,1.2-3.9,1.2c-0.6-0.1-0.9-0.6-0.9-1.6
		c0-0.5,0.3-1,0.8-1.6s1-0.9,1.4-0.9c0.2,0,0.5-0.1,0.8-0.3c0.3-0.2,0.7-0.4,1.2-0.6c0.6-0.2,1.1-0.4,1.4-0.5c0.8-0.3,2.5-0.8,5-1.6
		c2.6-0.8,4.3-1.3,5.3-1.5c1.4-0.4,2.1-0.6,2.3-0.7C473.6,324.5,474.5,324.5,475.7,324.9z M492.2,363.6c0.6,0.4,0.8,1.1,0.8,1.9
		c-0.2,1.4,0.9,2.7,3.3,3.9c1.4,0.7,2.2,1.6,2.5,2.8c0.3,1.1,0.2,3-0.2,5.5c-1,5.7-3.2,9.7-6.7,12c-2.7,1.9-4.9,1.8-6.6-0.2
		c-0.9-1.1-1.5-2.8-1.7-5c-0.1-1.1-0.2-2.1,0-2.8c0.1-0.7,0.4-2.1,1-4.3c0.5-1.6,0.9-2.8,1.1-3.7c0.4-1.3,0.9-2.8,1.6-4.5
		c0.8-1.8,1.2-3,1.4-3.6c0.4-1.2,0.9-2,1.6-2.2C490.9,363.1,491.6,363.1,492.2,363.6z M488.4,376c-0.3,1-0.5,2.1-0.8,3.4
		c-0.7,4.5-0.6,6.7,0.4,6.8c0.4,0,1-0.2,1.7-0.5c1.9-1,3.4-2.6,4.5-4.8c1.1-2.2,1.2-4.1,0.5-5.9c-0.3-0.7-0.4-1.5-0.4-2.2
		s-0.2-1.4-0.8-1.9C491.5,368.6,489.7,370.4,488.4,376z M495,316.6c0.2,0,0.6,0.1,1.1,0.4c0.4,0.2,0.7,0.6,0.7,1.3
		c0,0.6,0,2.8,0,6.6c-0.1,5-0.2,7.8-0.3,8.4c-0.1,0.6,0,1,0.3,1.4c0.2,0.3,0.5,0.4,0.9,0.3s1.8-0.8,4.5-2c4.8-2.1,10.7-3.5,17.7-4.1
		c1.3-0.1,2.1-0.2,2.5,0s0.6,0.4,0.6,0.8s-0.5,0.7-1.4,1.1c-1,0.4-3.1,1.1-6.3,2.1c-7.6,2.1-12.4,3.8-14.5,4.9
		c-1.6,0.9-2.6,1.3-3.1,1.4c-0.6,0.1-0.9,0.7-1.1,1.6s-0.3,3.2-0.4,6.7c-0.1,4.7-0.3,7.1-0.8,7.3c-0.2,0.1-0.5,0.1-0.7,0
		c-0.5-0.1-0.9-0.4-1.1-0.7s-0.4-1.2-0.5-2.7s-0.2-3.3-0.3-5.4c0-2.1,0-5.5,0-10.2c0-8.6,0.1-13.7,0.2-15.4c0.1-1.7,0.6-2.8,1.3-3.4
		C494.5,316.8,494.8,316.6,495,316.6z"/>
	<path class="st1" d="M552.7,341.5c1.8,0.3,2.7,0.6,2.9,1.1c0.2,0.8,0,1.3-0.8,1.6s-2.2,0.5-4.5,0.7c-1.8,0.1-3.3,0.4-4.5,0.7
		c-1.2,0.3-3.5,1.1-7,2.4c-3,1.1-4.9,1.8-5.8,1.9c-0.8,0.1-1.5,0.4-2.1,0.9c-1.8,1.2-2.7,0.8-2.7-1.3c0-0.5,0.2-1,0.6-1.4
		c0.4-0.5,1-0.8,1.7-0.9s1.5-0.4,2.2-1c2.1-1.4,4.7-2.5,7.8-3.1c2.5-0.5,4.7-0.9,6.5-1.1c1.6-0.2,2.4-0.4,2.5-0.4
		C549.9,341.3,550.9,341.3,552.7,341.5z M551.3,330.3c1.1,0.2,1.7,0.7,1.7,1.4c0,0.5-0.2,0.8-0.7,1s-1.6,0.5-3.3,1
		c-2.8,0.6-5.9,1.6-9.3,2.8c-3.4,1.2-5.6,2.2-6.4,2.8c-0.8,0.6-1.5,0.8-2.1,0.6c-0.6-0.2-0.9-0.9-0.9-2c0-2.7,4.8-5,14.4-6.9
		c1-0.2,1.8-0.4,2.5-0.5C548.8,330.1,550.2,330.1,551.3,330.3z M544.2,352.7c0.3,0.1,0.7,0.7,1,1.8c0.3,0.7,1,1.4,2,2
		c1.5,0.9,2.3,2,2.5,3.5s-0.1,3.9-1.1,7.4c-0.6,2.1-1.1,3.6-1.5,4.5c-0.5,0.9-1.2,1.7-2.1,2.5c-5.6,5.1-8.6,4.5-8.9-1.8
		c-0.1-2.1,0.6-5.4,2.2-10s3.1-7.6,4.4-8.9C543.3,352.9,543.8,352.6,544.2,352.7z M542,362.6c-0.6,1.6-0.9,2.4-1,2.5
		c-0.7,1.7-1.3,3.6-1.7,5.6s-0.4,3.1,0,3.2c0.8,0.3,1.9-0.3,3.4-1.8s2.5-2.9,2.9-4.3c0.3-1,0.4-2.5,0.3-4.4c-0.1-2-0.3-3.1-0.6-3.6
		C544.2,358.5,543,359.4,542,362.6z M569.9,347c-0.2,1.8-0.3,3.5-0.2,5.1s0.2,2.5,0.4,2.5c0.5,0.1,2.7-0.7,6.7-2.5
		c0.6-0.3,1.4-0.6,2.5-1c1-0.4,1.7-0.6,2.2-0.9c1.5-0.6,3.8-1.4,6.9-2.1c2.5-0.6,4-1,4.5-1.1c0.7-0.1,2-0.5,3.9-1
		c2.5-0.6,4.9-1.2,6.9-1.6c1.1-0.2,2.3-0.5,3.5-0.8c1.8-0.4,2.7-0.2,2.7,0.4c0,1.1-2.6,2.2-7.8,3.4c-1.1,0.3-3.9,1.1-8.5,2.5
		s-7.8,2.4-9.5,2.9c-5,1.7-8.4,3.2-10.2,4.4c-0.7,0.5-1.4,0.8-2,1c-0.8,0.1-1.2,0.5-1.4,1.1c-0.1,0.6-0.2,2.3-0.2,5.1
		c0,1.6,0,2.8-0.1,3.8s-0.2,1.8-0.3,2.4s-0.3,1-0.5,1.2s-0.5,0.3-0.8,0.2c-0.3,0-0.5-0.1-0.6-0.3c-0.1-0.2-0.2-0.5-0.4-1.1
		c-0.3-1.1-0.5-5-0.7-11.7s-0.2-10.5,0-11.4s0.3-2.5,0.2-4.9c-0.1-2.5,0-4.1,0-4.6c0.1-0.5,0.4-1,0.9-1.5s0.8-0.8,1-0.9
		s0.5,0,0.9,0.2C570.8,336.4,570.7,340,569.9,347z"/>
	<path class="st1" d="M636.4,339.4c0.7,0.1,1.3,0.3,1.7,0.5c1.1,0.7,1.3,1.7,0.8,3c-2.6,5.6-3.9,8.5-3.9,8.7c0,0.1-0.7,1.5-2,3.9
		c-1.3,2.3-2.6,5.1-4,8.2c-2.8,6.1-4.5,9.5-5.3,10.3c-1.1,1.1-1.7,1-1.8-0.3c-0.1-0.7,0.1-1.7,0.5-3c1.6-4.6,3.3-8.9,5.3-13l1.3-2.9
		c0-0.1,0.2-0.7,0.8-1.8c0.6-1.4,1-2.2,1.1-2.5c0.1-0.6,0.5-1.5,1-2.5c0.6-1.4,0.8-2.3,0.7-2.9s-0.5-0.8-1.2-0.7
		c-0.6,0.1-2.4,0.6-5.2,1.7s-5,2-6.4,2.8c-2.1,1.1-3.4,1.2-3.9,0.4c-0.5-0.6-0.4-1.5,0.2-2.5s1.4-1.5,2.3-1.5c0.2,0,1.3-0.4,3.2-1.3
		s3.3-1.5,4-1.7c0.8-0.3,1.7-0.6,2.7-0.9c1-0.4,2.4-0.9,4.2-1.3s2.8-0.7,2.9-0.9C635.2,339.3,635.6,339.3,636.4,339.4z M664.4,335.1
		c0.6,0,1,0.2,1.3,0.7c0.3,0.4,0.3,2.1,0.2,4.9c-0.5,8.6-0.6,17.5-0.2,26.6c0.1,2.9,0,4.8,0,5.7c-0.1,0.9-0.4,1.4-0.8,1.4
		c-1,0.1-1.8-1.4-2.3-4.5c-0.2-1.3-0.4-2.5-0.6-3.7c-0.3-1.8-0.5-4.4-0.6-7.8c0-0.3,0-0.7,0-1.2c-0.1-3-0.4-4.6-0.8-5
		c-0.5-0.3-2.2,0-5,0.9c-0.4,0.1-0.8,0.2-1.1,0.3c-3.4,1.1-6.4,2.3-9,3.6c-1.5,0.7-2.8,0.9-3.8,0.7s-1.6-0.9-1.6-2
		c0-1,1.7-2.2,5.2-3.6s7.1-2.3,10.8-2.8c2.5-0.4,4-0.8,4.6-1.2s0.9-1.6,0.9-3.4c0-5.1,0.5-8.1,1.4-9
		C663.3,335.4,663.8,335.1,664.4,335.1z M682,329.7c0.8,0.1,1.3,0.5,1.5,1.1c0.3,0.8,0.4,8.6,0.3,23.4c-0.1,14.8-0.3,22.5-0.5,23
		c-1.1,2.2-1.9,1.5-2.5-2.2c-0.3-1.6-0.5-3.9-0.8-6.7c-0.3-3.3-0.4-10.4-0.4-21.3s0.1-16.5,0.4-16.8
		C680.5,329.7,681.1,329.6,682,329.7z"/>
</g>
<image style="overflow:visible;enable-background:new    ;" width="408" height="614" xlink:href="65D3143.png"  transform="matrix(0.9975 0 0 0.9975 986.5671 32.6499)">
</image>
</svg>
