<?xml version="1.0" encoding="utf-8"?>
<!-- Generator: Adobe Illustrator 27.0.0, SVG Export Plug-In . SVG Version: 6.00 Build 0)  -->
<svg version="1.1" id="Layer_1" xmlns="http://www.w3.org/2000/svg" xmlns:xlink="http://www.w3.org/1999/xlink" x="0px" y="0px"
	 viewBox="0 0 196.5 261.3" style="enable-background:new 0 0 196.5 261.3;" xml:space="preserve">
<style type="text/css">
	.st0{fill:#D22228;}
	.st1{fill:#FFFFFF;}
	.st2{fill:#2E2D30;}
</style>
<g>
	<g>
		<polygon class="st0" points="189,37.2 9.3,5.5 9.3,156.1 163.2,183.2 		"/>
		<polygon class="st1" points="127.6,68.6 99.8,114.6 90.4,62 80,60.2 52.3,105.9 42.9,53.7 30.5,51.5 44.1,123.2 54.1,125 81.8,80 
			91.5,131.6 101.7,133.4 130.6,86.5 135.4,111.4 126.5,109.9 119.8,120.7 137.6,123.8 140.9,140.3 152.5,142.3 139.8,70.7 		"/>
	</g>
	<g>
		<polygon class="st0" points="36.4,197.2 29.9,221.2 26,221.2 21.6,206.7 17.2,221.2 13.3,221.2 6.9,197.2 11.7,197.2 15.4,212.4 
			19.8,197.2 23.3,197.2 27.7,212.4 31.5,197.2 		"/>
		<polygon class="st0" points="54.5,221.2 38.7,221.2 38.7,197.2 54.5,197.2 54.5,201.4 43.3,201.4 43.3,207 52.8,207 52.8,211.2 
			43.3,211.2 43.3,217 54.5,217 		"/>
		<path class="st0" d="M75.1,214.3c0,2.2-0.7,3.9-2,5.1c-1.3,1.2-3.1,1.8-5.3,1.8H57.7v-24h9.6c2.3,0,4.1,0.6,5.4,1.8
			c1.3,1.2,2,2.8,2,4.9c0,1.2-0.3,2.3-1,3.3c-0.5,0.8-1.2,1.3-2,1.7c0.9,0.4,1.7,1,2.2,1.7C74.8,211.6,75.1,212.9,75.1,214.3
			 M70.1,204.2c0-0.8-0.3-1.5-0.8-2c-0.5-0.5-1.3-0.8-2.3-0.8h-4.6v5.5H67c1,0,1.8-0.2,2.3-0.7C69.8,205.7,70.1,205,70.1,204.2
			 M70.5,214.1c0-0.9-0.3-1.5-0.7-2.1c-0.6-0.6-1.4-0.9-2.4-0.9h-4.9v5.9h4.9c1,0,1.8-0.3,2.3-0.8C70.2,215.7,70.5,214.9,70.5,214.1
			"/>
		<path class="st0" d="M100.2,221.2h-4.9l-1.4-4.2h-8.5l-1.5,4.2h-4.9l8.7-24h3.7L100.2,221.2z M92.7,213l-2.9-8.7l-3,8.7H92.7z"/>
		<polygon class="st0" points="127.5,197.2 121.1,221.2 117.2,221.2 112.7,206.7 108.3,221.2 104.4,221.2 98,197.2 102.9,197.2 
			106.6,212.4 111,197.2 114.5,197.2 118.9,212.4 122.6,197.2 		"/>
		<path class="st0" d="M145.9,221.2H141l-1.4-4.2h-8.5l-1.5,4.2h-4.9l8.7-24h3.7L145.9,221.2z M138.4,213l-2.9-8.7l-3,8.7H138.4z"/>
		<path class="st0" d="M165.2,221.2h-5.4l-4.7-9.6h-3.4v9.6h-4.7v-24h9.4c2.4,0,4.3,0.7,5.7,2.2c1.4,1.4,2.1,3.1,2.1,5.2
			c0,1.6-0.4,2.9-1.3,4.1c-0.8,1-1.8,1.8-3.1,2.2L165.2,221.2z M159.6,204.6c0-1-0.3-1.7-0.9-2.3c-0.6-0.6-1.4-0.8-2.5-0.8h-4.4v6.3
			h4.4c1,0,1.8-0.3,2.5-0.9C159.3,206.3,159.6,205.5,159.6,204.6"/>
		<path class="st0" d="M184.5,209.1v1.5c0,1.9-0.1,3.4-0.3,4.4c-0.3,1.5-1,2.8-2.1,3.9c-0.7,0.7-1.7,1.3-2.8,1.7
			c-1.1,0.4-2.3,0.6-3.6,0.6h-8.7v-24h8.7c1.3,0,2.5,0.2,3.5,0.6c1.1,0.4,2,0.9,2.8,1.7c1.1,1.1,1.8,2.3,2.1,3.8
			c0.2,1,0.3,2.4,0.3,4.3V209.1z M179.8,209.1c0-1.9-0.1-3.3-0.2-4.2c-0.1-0.8-0.4-1.5-0.8-2c-0.4-0.5-0.9-0.9-1.5-1.1
			c-0.6-0.2-1.3-0.4-2.1-0.4h-3.5V217h3.5c1.5,0,2.7-0.5,3.5-1.5c0.4-0.5,0.7-1.2,0.8-2.1C179.8,212.6,179.8,211.1,179.8,209.1"/>
	</g>
	<g>
		<polygon class="st2" points="44.1,250.3 44.1,230 55.7,230 55.7,232.5 46.6,232.5 46.6,238.6 54.2,238.6 54.2,241.1 46.6,241.1 
			46.6,247.8 55.8,247.8 55.8,250.3 		"/>
		<polygon class="st2" points="68.9,250.3 64.7,242.3 60.4,250.3 57.6,250.3 63.3,239.8 58.1,230 61,230 64.8,237.5 68.8,230 
			71.5,230 66.2,239.8 71.9,250.3 		"/>
		<path class="st2" d="M79.6,250.7c-3.8,0-7.1-2.2-7.1-6.9V237c0-4.4,2.9-7.3,7-7.3c3.7,0,6.6,2.3,6.6,6v0.7h-2.4V236
			c0-2.5-1.8-3.8-4.3-3.8c-2.4,0-4.4,1.6-4.4,4.6v6.9c0,2.9,1.8,4.6,4.5,4.6c2.5,0,4.1-1.4,4.1-3.8V244h2.4v0.7
			C86.1,248.7,82.9,250.7,79.6,250.7"/>
		<polygon class="st2" points="88.6,250.3 88.6,230.1 100.2,230.1 100.2,232.5 91.1,232.5 91.1,238.6 98.7,238.6 98.7,241.1 
			91.1,241.1 91.1,247.9 100.3,247.9 100.3,250.3 		"/>
		<polygon class="st2" points="102.8,250.3 102.8,230.1 105.4,230.1 105.4,247.9 114.3,247.9 114.3,250.3 		"/>
		<polygon class="st2" points="116.8,250.3 116.8,230.1 119.3,230.1 119.3,247.9 128.2,247.9 128.2,250.3 		"/>
		<polygon class="st2" points="130.5,250.3 130.5,230.1 142.1,230.1 142.1,232.5 133,232.5 133,238.6 140.6,238.6 140.6,241.1 
			133,241.1 133,247.9 142.1,247.9 142.1,250.3 		"/>
		<polygon class="st2" points="155.7,250.4 146.9,234.8 146.9,234.8 146.9,250.3 144.5,250.3 144.5,230 147,230 155.6,245.3 
			155.7,245.3 155.7,230 158.1,230 158.1,250.4 		"/>
		<polygon class="st2" points="167.6,232.5 167.6,250.3 165,250.3 165,232.5 159.7,232.5 159.7,230 172.8,230 172.8,232.5 		"/>
	</g>
	<g>
		<path class="st0" d="M14.9,250.6c-3.8,0-6.5-1.7-6.5-5.3V244c0-1.9,1.1-3.4,2.5-4.1c-1.4-0.6-2.2-2.1-2.2-3.8v-1
			c0-3.6,3-5.5,6.3-5.5c3.2,0,6.3,1.6,6.3,5.1c0,0,0.1,1.8,0,1.9c0,1.5-1.1,2.8-2.3,3.3c1.5,0.5,2.6,2.3,2.6,4v1.2
			C21.5,248.7,18.6,250.6,14.9,250.6z M18,243.8c0-2-1.5-2.6-3-2.6c-1.5,0-3,0.7-3,2.5v1.3c0,1.7,1.4,2.7,2.9,2.7c1.7,0,3-0.9,3-2.8
			V243.8z M17.9,235.1c0-1.8-1.5-2.6-3-2.6c-1.4,0-2.8,0.9-2.8,2.5v1.2c0,1.8,1.4,2.6,2.9,2.6c1.5,0,2.9-0.9,2.9-2.6V235.1z"/>
	</g>
	<g>
		<path class="st0" d="M26.5,242.7c-1.4,0-2.4-0.6-2.4-2.3v-5.3h-1.2v-1.7H24v-2.8h2.1v2.8H28v1.7h-1.9v4.8c0,0.7,0.3,0.9,0.8,0.9
			c0.4,0,0.7,0,1.1-0.1v1.9C27.6,242.6,26.7,242.7,26.5,242.7z"/>
		<path class="st0" d="M35,242.6v-5.3c0-1.4-0.6-2.1-1.6-2.1c-1.1,0-1.8,0.7-1.8,2.3v5.2h-2.1v-12.8h2.1v4.8h0.1
			c0.6-0.9,1.5-1.3,2.4-1.3c2,0,3.1,1.3,3.1,3.5v5.9H35z"/>
	</g>
</g>
</svg>
