<?xml version="1.0" encoding="utf-8"?>
<!-- Generator: Adobe Illustrator 27.0.0, SVG Export Plug-In . SVG Version: 6.00 Build 0)  -->
<svg version="1.1" id="Layer_1" xmlns="http://www.w3.org/2000/svg" xmlns:xlink="http://www.w3.org/1999/xlink" x="0px" y="0px"
	 viewBox="0 0 33.7 26" style="enable-background:new 0 0 33.7 26;" xml:space="preserve">
<style type="text/css">
	.st0{fill:#9A9A9A;}
</style>
<path class="st0" d="M-163.3-36.3c-0.4-1.4-1.4-2.5-2.8-2.8c-2.4-0.7-12.2-0.7-12.2-0.7s-9.7,0-12.2,0.7c-1.3,0.3-2.4,1.4-2.7,2.8
	c-0.7,2.4-0.7,7.5-0.7,7.5s0,5.1,0.7,7.6c0.4,1.4,1.4,2.4,2.8,2.7c2.4,0.7,12.1,0.7,12.1,0.7s9.8,0,12.2-0.7
	c1.3-0.4,2.4-1.4,2.8-2.7c0.7-2.5,0.7-7.6,0.7-7.6S-162.6-33.9-163.3-36.3z M-181.5-24.1v-9.3l8.2,4.6L-181.5-24.1L-181.5-24.1z"/>
<path class="st0" d="M31.8,5.5C31.4,4.1,30.4,3,29,2.7C26.6,2,16.8,2,16.8,2S7.1,2,4.6,2.7C3.3,3,2.2,4.1,1.9,5.5
	C1.2,7.9,1.2,13,1.2,13s0,5.1,0.7,7.6C2.3,22,3.3,23,4.7,23.3C7.1,24,16.8,24,16.8,24s9.8,0,12.2-0.7c1.3-0.4,2.4-1.4,2.8-2.7
	c0.7-2.5,0.7-7.6,0.7-7.6S32.5,7.9,31.8,5.5z M13.6,17.7V8.4l8.2,4.6L13.6,17.7L13.6,17.7z"/>
</svg>
